<svg xmlns="http://www.w3.org/2000/svg" viewBox="0 0 300 300"><defs><style>.cls-1{fill:none;stroke:#303031;stroke-miterlimit:10;stroke-width:4px;}.cls-2{fill:#303031;}</style></defs><title>alien</title><g id="Layer_6" data-name="Layer 6"><path class="cls-1" d="M153,59.22c8.66.07,55.9,1.05,79.81,26.55,23.69,25.27,12.3,59.56-2.35,82.33-21.62,33.63-48.73,62.09-72.09,78a9.64,9.64,0,0,1-10.74,0c-23.36-15.89-50.47-44.35-72.09-78-14.65-22.77-26-57.06-2.35-82.33C97.06,60.27,144.3,59.29,153,59.22Z"/><path class="cls-2" d="M185.89,182c12.63-12.75,12.63-12.75,25.28-29.39,9.42-12.38,14.14-26,14.21-33.36.11-10-4.46-14.58-12.52-16-11-1.94-27.28,12.4-32.1,23.48-4.67,10.72-6.48,17.44-8.45,34.92-1.13,10-1.69,31.3.84,31.9C175,193.94,182.49,185.4,185.89,182Z"/><path class="cls-2" d="M122.26,182c-12.62-12.75-12.62-12.75-25.28-29.39-9.41-12.38-14.14-26-14.21-33.36-.11-10,4.47-14.58,12.52-16,11-1.94,27.29,12.4,32.11,23.48,4.66,10.72,6.47,17.44,8.45,34.92,1.13,10,1.68,31.3-.85,31.9C133.18,193.94,125.67,185.4,122.26,182Z"/></g></svg>