<svg xmlns="http://www.w3.org/2000/svg" viewBox="0 0 300 300"><defs><style>.cls-1{fill:none;stroke:#303031;stroke-miterlimit:10;stroke-width:4px;}</style></defs><title>Artboard 7</title><g id="Layer_8" data-name="Layer 8"><path class="cls-1" d="M208,146c2.84-11.92.7-18.32-2-22-1.83-2.5-3.4-3-6-7-1.43-2.17-4.87-7.43-5-14-.11-5.56,2.29-5.75,3-12,.9-7.89-1.82-17.1-6-18-2.07-.44-3.78,1.3-6,3-6,4.59-11.67,5.8-22,8-13.51,2.88-13.45-3.75-30-2-11.5,1.22-13.78,4.65-25,4-6.09-.36-8.24-1.53-12,0-6.47,2.64-11.24,10.68-11,18,.16,4.84,2.33,4.39,5,15a70.24,70.24,0,0,1,2,12,67.28,67.28,0,0,1,0,10"/><path class="cls-1" d="M209,135c1.54-3.13,7.45-15.54,9-21,1.79-6.28,2.24-10.92,3-19,.93-10,1.37-15,0-20-1.17-4.25-2.89-10.45-8-13-4.33-2.16-8.55-.43-10-3-1.08-1.91.73-3.8,1-7,.49-5.86-4.66-10.77-7-13-3.93-3.74-9.88-7-34-9-13.92-1.17-20.88-1.76-26-1-18.68,2.77-30.94,12.76-36,17-7.72,6.46-14.73,12.33-17,22-1.43,6.12-1.13,14.47-1,18,.17,4.58,4,21,1,11"/><path class="cls-1" d="M259,218a140.15,140.15,0,0,0-24-10c-7.23-2.24-13.45-3.48-19-9-3.19-3.18-9-9.6-10-12"/><path class="cls-1" d="M207,168c1.05-.05,6.5-2.25,8-3,3.51-1.75,5.08-5.35,8-19,1.86-8.7,3.34-17.15,1-24-1.22-3.56-2.52-3.93-3-4-2-.29-4,0-6,4"/><path class="cls-1" d="M217,140a16.11,16.11,0,0,1,1-6c.36-1,2.28-6.07,5-6a3.06,3.06,0,0,1,2,1"/><path class="cls-1" d="M216,152a6.58,6.58,0,0,1,1,3c.1,1.37-.78,2.08-1,4-.1.85.95,3.55,1,4"/><path class="cls-1" d="M204,66a9.1,9.1,0,0,1,5,3,9.32,9.32,0,0,1,2,7"/><path class="cls-1" d="M197,70a10.8,10.8,0,0,1,4,2c5.94,4.79,4.12,14.4,4,15"/><path class="cls-1" d="M137,73a72.1,72.1,0,0,0,14,5,60.59,60.59,0,0,0,20,2c2.9-.23,8.3-.64,10-1"/><path class="cls-1" d="M94,78a23.49,23.49,0,0,1,9-7,24.11,24.11,0,0,1,16-1"/><path class="cls-1" d="M83,74c1.3-2.12,6.51-10.18,10-13,6.38-5.15,13.1-6.35,17-7a43.18,43.18,0,0,1,14,0"/><path class="cls-1" d="M135,37a45.8,45.8,0,0,0-9-1c-4,0-13.35,2.43-16,3"/><path class="cls-1" d="M99,167c-.47.47-1,3-3,3-2.8,0-5.81-6.22-7-10-1.49-4.72-1.78-7.5-3-16-1.68-11.72-2.47-15.88,0-18,.2-.17,1.84-1.55,3-1,.93.44,3,0,4,4"/><path class="cls-1" d="M197,56a60.08,60.08,0,0,0-9-11,57.43,57.43,0,0,0-14-10c-4.28-2.12-8.14-4.3-11-5"/><path class="cls-1" d="M184,68a36.91,36.91,0,0,1-21-3"/><path class="cls-1" d="M163,46a23.41,23.41,0,0,1,7,0c11.94,1.83,18.57,12.56,20,15"/><path class="cls-1" d="M105,86c-.94.75-5.28,4-6,6-2.14,5.76,3.57,10.56,4,17,.25,3.71-3.18,11.07-11,18"/><path class="cls-1" d="M109,95a8.65,8.65,0,0,0-2,5,9.16,9.16,0,0,0,3,7"/><path class="cls-1" d="M94,107c0-.38-.29-3.27,1-5,1.08-1.45,4.56-2.89,5-3"/><path class="cls-1" d="M209,108a14.41,14.41,0,0,0,1,6,14.76,14.76,0,0,0,6,7"/><path class="cls-1" d="M201,142a84.51,84.51,0,0,1,0,26"/><path class="cls-1" d="M137,150a8.32,8.32,0,0,0-2,3c-.3.79-1.31,3.41,0,5a2.71,2.71,0,0,0,2,1c1-.06,1.14-.91,2-1,1.05-.11,1.53,1.08,3,2a7.53,7.53,0,0,0,4,1c2.23.05,2.7-.8,6-1a10.27,10.27,0,0,1,2,0c2.31.25,2.74,1.18,4,1,1.48-.22,2.58-1.74,3-3a4.87,4.87,0,0,0,0-3"/><path class="cls-1" d="M141,116a89.25,89.25,0,0,1,1,16,48.28,48.28,0,0,1-1,8"/><path class="cls-1" d="M152,120a8.61,8.61,0,0,0,5,2c3.68.1,4.56-2.84,9-4,1.56-.41,4.7.06,11,1,4.26.63,5.61,1.06,7,2,2.63,1.79,3.57,4.22,4,4s-.22-3.35-2-6a14.61,14.61,0,0,0-6-5"/><path class="cls-1" d="M103,130a4,4,0,0,0,2,3c.86.43,2.28.69,3,0,.87-.84,0-2.36,0-4,.11-4.43,7.2-9.65,13-9,2.68.3,3.08,1.63,7,2,3,.28,3.48-.41,6,0,4.36.71,6.65,3.41,7,3s-1.73-5.39-5-7a11.76,11.76,0,0,0-3-1"/><path class="cls-1" d="M147,199c.64-1.72,3.22-1.9,5-2,2.48-.14,2.92.89,3,1"/><path class="cls-1" d="M146,169a5.66,5.66,0,0,1,1,2,5.86,5.86,0,0,1,0,3"/><path class="cls-1" d="M128,181a3.46,3.46,0,0,0,2,2c1.34.34,2.67-.75,3-1,.7-.54,2.48-1.6,15-2,15.74-.5,21.16.92,24,0,.3-.1,1.48-.52,2,0s.25,1.27,0,2"/><path class="cls-1" d="M142,189a16.44,16.44,0,0,0,8,1,16.24,16.24,0,0,0,6-2"/><path class="cls-1" d="M117,208a87,87,0,0,0,2,13,64,64,0,0,0,5,13c4.44,7.83,18,19,24,17,18.25-6.08,33.69-13.71,42-23,5.74-6.42,12.69-14.19,15-26,1.56-7.94,0-12.5,1-28,.5-7.67,1.35-13.91,2-18"/><path class="cls-1" d="M44,227a319.83,319.83,0,0,0,67-18c1.68-.66,3.35-1.32,5-2"/><path class="cls-1" d="M129,225a37,37,0,0,1-3-7c-.44-1.42-.76-3.76-1-5"/><path class="cls-1" d="M117,263c.55-5.91.92-12.26,1-19,.11-9,.71-19.4,0-27"/><path class="cls-1" d="M177,263q5-10.44,10-21c2.69-5.68,6.35-15.35,9-21"/><path class="cls-1" d="M129,263c1.47-2.24,3.13-4.59,5-7,1.69-2.18,3.37-4.18,5-6"/><path class="cls-1" d="M162,263c-2-2.22-4-4.55-6-7q-2.08-2.52-4-5"/><path class="cls-1" d="M160,130c-1.53.23-3.43-1.86-4-4a6.09,6.09,0,0,1,0-3"/><path class="cls-1" d="M99,146a112,112,0,0,0,0,15c.51,7.63,1.43,21.3,7,32,7.49,14.39,25.64,27.67,47,27,19.35-.6,38.93-12.57,45-30a37,37,0,0,0,2-13"/><path class="cls-1" d="M109,183a37.79,37.79,0,0,0,1,9c3.19,15.89,23,24.15,26,25,4.72,1.35,18,6,35-1,5.49-2.26,8-8,11-14"/></g></svg>