<svg xmlns="http://www.w3.org/2000/svg" viewBox="0 0 300 300"><defs><style>.cls-1,.cls-2{fill:#fff;}.cls-1,.cls-2,.cls-3,.cls-4{stroke:#303031;stroke-miterlimit:10;}.cls-1,.cls-4{stroke-width:4px;}.cls-2{stroke-width:3px;}.cls-3{fill:#303031;}.cls-4{fill:none;}</style></defs><title>Artboard 11</title><g id="Layer_6" data-name="Layer 6"><path class="cls-1" d="M84.64,189.64c-29,31.09-37.21,36.43-39.42,35.46s-1.27-6,19.28-39.92c-37.57-12.65-37.25-15.38-36.2-17.52s10.74-3.13,53,1.91h0c41-15.23,62.58-24.54,85.19-28.33,20.07-3.37,31.55-3,53.52-.74,19.64,2,47.62,7.89,48.92,21.11.23,2.3.52,6.32-5,11.66-7.12,6.86-27.16,14.32-58.41,18.36-15.5,2-27.89,3.44-59,2.48-18.74-.58-32.66-2.74-61.82-4.47l-3.14,3.41"/><rect class="cls-2" x="169.29" y="117.71" width="9.01" height="11.58" transform="translate(-6.04 8.97) rotate(-2.91)"/><ellipse class="cls-1" cx="172.28" cy="93.35" rx="28.95" ry="27.67" transform="matrix(1, 0, 0, 1, -0.23, 0.42)"/><path class="cls-3" d="M144.71,95.29c2.53,2.27,9.66-2,18.37-7.11,7.92-4.69,22.77-13.48,21.17-18.44-1.44-4.46-16.36-6.3-26.87.07C146.06,76.67,141.26,92.2,144.71,95.29Z"/><path class="cls-3" d="M200.43,89.4c-1.8,1.64-6.93-1.37-13.21-5-5.7-3.34-16.4-9.6-15.26-13.17,1-3.2,11.72-4.58,19.29,0C199.4,76,202.9,87.17,200.43,89.4Z"/><rect class="cls-3" x="167.8" y="100.43" width="10.29" height="5.15" rx="0.37" ry="0.37" transform="translate(-0.25 0.42) rotate(-0.14)"/><path class="cls-1" d="M152.91,162.56a37,37,0,0,1,.14-10.57c.74-4.58,2.08-12.88,8.92-18.26a23.06,23.06,0,0,1,24.54-2.21c9.66,5.22,11.39,16.23,12,20a31.82,31.82,0,0,1,.09,9.09"/><path class="cls-4" d="M197.77,144.41c5,1.88,10.6,4.84,10.69,7.75.21,6.39-14,12-31.77,12.61s-33.35-1.26-33.56-7.65c-.08-2.73,7.12-7.41,10.5-8.78"/><path class="cls-1" d="M249,146.35c-.6,2.08-2.87,10-1.32,16.73s6.33,12.53,8,15.58"/><path class="cls-1" d="M188,186.68q-36.39,36.47-41.12,35.7-4.53-.74,20.13-35.8"/></g></svg>