<svg xmlns="http://www.w3.org/2000/svg" viewBox="0 0 300 300"><defs><style>.cls-1{fill:#fff;stroke:#303031;stroke-miterlimit:10;stroke-width:4px;}</style></defs><title>chemtrails</title><g id="Layer_6" data-name="Layer 6"><path class="cls-1" d="M256,124.29a7.71,7.71,0,0,1-6.56,7.46.83.83,0,0,0-.68.54,7,7,0,0,1-6.55,5.3A6.38,6.38,0,0,1,238,136a1,1,0,0,0-1.23,0,5.64,5.64,0,0,1-3.79,1.56,6.49,6.49,0,0,1-5.42-3.59.9.9,0,0,0-1-.4,7.52,7.52,0,0,1-1.65.19,7.64,7.64,0,0,1-4.53-1.49,1,1,0,0,0-1.29.16,3,3,0,0,1-2.23,1.33,3.09,3.09,0,0,1-2.39-1.54,1,1,0,0,0-1.29-.18,9.5,9.5,0,0,1-5.52,1.72,9.68,9.68,0,0,1-4.3-1,.91.91,0,0,0-1.27.41c-.85,2.67-2.16,4.39-3.62,4.39-1.3,0-2.48-1.36-3.31-3.5a.88.88,0,0,0-1-.46,6.74,6.74,0,0,1-1.43.16,7.14,7.14,0,0,1-3.93-1.21,1,1,0,0,0-1.09,0,4.52,4.52,0,0,1-6,0,1,1,0,0,0-1.09,0,7.14,7.14,0,0,1-3.93,1.21,7.5,7.5,0,0,1-5.91-3.07,1.66,1.66,0,0,0-2.21-.23,7.75,7.75,0,0,1-4.52,1.4,7.87,7.87,0,0,1-4.13-1.13,2.19,2.19,0,0,0-2.87.49,9.76,9.76,0,0,1-8,4.44,9.13,9.13,0,0,1-5.69-2,.94.94,0,0,0-1.22.07,12.81,12.81,0,0,1-18.55-.21,1,1,0,0,0-1.09-.2,5.32,5.32,0,0,1-2.18.48,5.54,5.54,0,0,1-3.39-1.22,1,1,0,0,0-1.06,0,9.51,9.51,0,0,1-4.75,1.25c-5.08,0-9.19-3.82-9.19-8.55s4.11-8.54,9.19-8.54a9.59,9.59,0,0,1,3.29.56,1.49,1.49,0,0,0,1.57-.35,5.85,5.85,0,0,1,4.34-2.11,5.28,5.28,0,0,1,2,.42A3.88,3.88,0,0,0,126,115a12.94,12.94,0,0,1,14.28.18.94.94,0,0,0,1.22-.17,9.61,9.61,0,0,1,7.59-4c4.85,0,9.51,1.86,10.75,6.84a1.19,1.19,0,0,0,1.71.59,5.14,5.14,0,0,1,2.64-.69,3.36,3.36,0,0,1,2,.69,2.11,2.11,0,0,0,2.91-.38c1.52-2.45,4.52-3.25,7.56-3.25a6.9,6.9,0,0,1,1.92.27.91.91,0,0,0,1-.38c1.24-2.27,3.05-3.69,5.08-3.69s3.83,1.42,5.07,3.69a.91.91,0,0,0,1.05.38,6.9,6.9,0,0,1,5.1.51,1,1,0,0,0,1-.13,2.32,2.32,0,0,1,1.53-.65c1.16,0,2.23,1.09,3,2.88a.94.94,0,0,0,1.3.32,9.53,9.53,0,0,1,4.85-1.3,9.68,9.68,0,0,1,4.22,1,.9.9,0,0,0,1.25-.42c.83-2.63,2.21-4.33,3.73-4.33s2.8,1.6,3.65,4.07a.89.89,0,0,0,1.24.41,7.66,7.66,0,0,1,8.37,1.37,1,1,0,0,0,1,.19,5.19,5.19,0,0,1,1.85-.34c2.29,0,3.25.45,4.3,2.63a1.49,1.49,0,0,0,1.09.78c1.29.19,1.33.88,1.67.76A8,8,0,0,1,248,116.7,7.84,7.84,0,0,1,256,124.29Z"/><circle class="cls-1" cx="78.19" cy="161.38" r="5.6"/><ellipse class="cls-1" cx="97.08" cy="159.98" rx="6.3" ry="8.4"/><ellipse class="cls-1" cx="107.57" cy="159.28" rx="4.2" ry="6.3"/><ellipse class="cls-1" cx="248.3" cy="133.39" rx="4.8" ry="5.6"/><ellipse class="cls-1" cx="62.1" cy="123.24" rx="9.1" ry="7.58"/><circle class="cls-1" cx="86.12" cy="124.53" r="6.06"/><path class="cls-1" d="M80.29,122c0,3.53,0,6.82-1.52,8.34-3,3-4.93,3-7.58,3-3.35,0-6.06-3-6.06-6.82s2.71-6.82,6.06-6.82c.58,0,1.52,0,1.52-1.52.47-2.79,2.07-3,3.79-3C78.59,115.2,80.29,118.24,80.29,122Z"/><path class="cls-1" d="M237.18,196.88c0,4.34-2.93,7.87-6.56,7.87a6.14,6.14,0,0,1-4.91-2.66.32.32,0,0,0-.44-.07,7.57,7.57,0,0,1-4.48,1.42c-3.89,0-7-2.78-7.21-6.27a.31.31,0,0,0-.3-.3c-2.76-.16-5-2.73-5-5.89s2.35-5.9,5.25-5.9a5.48,5.48,0,0,1,5.2,5.13.32.32,0,0,0,.38.28,8.07,8.07,0,0,1,1.64-.17,7.64,7.64,0,0,1,4.48,1.42.3.3,0,0,0,.44-.07,6.14,6.14,0,0,1,4.91-2.66C234.25,189,237.18,192.54,237.18,196.88Z"/><circle class="cls-1" cx="239.15" cy="188.36" r="4.59"/><circle class="cls-1" cx="246.37" cy="194.26" r="3.94"/><path class="cls-1" d="M182,164a5.46,5.46,0,0,0,3.56,1.37,5.64,5.64,0,0,0,4.08-1.85.72.72,0,0,1,1.14.13,8,8,0,0,0,7.23,4.75,7.79,7.79,0,0,0,5.55-2.34,1,1,0,0,1,1.11-.18,12,12,0,0,0,4.9,1,12.39,12.39,0,0,0,4.28-.75.42.42,0,0,1,.53.17,6.56,6.56,0,0,0,11.78-.12.28.28,0,0,1,.42-.07,11.33,11.33,0,0,0,7,2.28c5.4,0,9.78-3.39,9.78-7.58s-4.38-7.58-9.78-7.58a11.06,11.06,0,0,0-7.5,2.72.42.42,0,0,1-.6,0,6.7,6.7,0,0,0-5.24-2.68,6.53,6.53,0,0,0-4.92,2.33.79.79,0,0,1-.9.17,12.54,12.54,0,0,0-9.24-.19.46.46,0,0,1-.55-.16,7.81,7.81,0,0,0-12.8-.62.35.35,0,0,1-.6-.08"/><path class="cls-1" d="M195.73,160.91c0,5-4.41,9.09-9.85,9.09a9.7,9.7,0,0,1-9.63-7.17.57.57,0,0,0-1-.26,4.31,4.31,0,0,1-3,1.37,4.51,4.51,0,0,1-3.47-1.85.57.57,0,0,0-1,.13c-1.1,2.81-3.44,4.75-6.16,4.75a6.19,6.19,0,0,1-4.73-2.34.74.74,0,0,0-.94-.18,9,9,0,0,1-4.18,1,9.15,9.15,0,0,1-3.65-.75.35.35,0,0,0-.46.17c-1.08,2.18-2.92,3.61-5,3.61s-4-1.48-5-3.73a.22.22,0,0,0-.36-.07,8.74,8.74,0,0,1-6,2.28c-4.61,0-8.33-3.39-8.33-7.58s3.72-7.58,8.33-7.58a8.63,8.63,0,0,1,6.39,2.72.33.33,0,0,0,.52,0,5.48,5.48,0,0,1,4.46-2.68,5.31,5.31,0,0,1,4.2,2.33.59.59,0,0,0,.76.17,9.24,9.24,0,0,1,7.88-.19A.37.37,0,0,0,156,154a6.56,6.56,0,0,1,5.64-3.66,6.4,6.4,0,0,1,5.27,3,.28.28,0,0,0,.51-.08c.81-2.64,2.68-4.48,4.83-4.48,2.51,0,4.61,2.49,5.16,5.83a.61.61,0,0,0,1.05.34,10.2,10.2,0,0,1,7.44-3.14C191.32,151.81,195.73,155.89,195.73,160.91Z"/><path class="cls-1" d="M195.73,195.66c0,5-3.44,9.09-7.7,9.09a7.66,7.66,0,0,1-6.87-5,.62.62,0,0,0-.93-.29,5.86,5.86,0,0,1-3.39,1.1,6,6,0,0,1-4.38-2,.5.5,0,0,0-.87.21c-.78,3.48-2.83,5.95-5.25,5.95-1.58,0-3-1.07-4-2.8a.79.79,0,0,0-1.08-.26,11.46,11.46,0,0,1-6.07,1.66c-4,0-7.36-1.83-8.91-4.48a.61.61,0,0,0-1,0,6.63,6.63,0,0,1-5.44,3.12c-3.86,0-7-3.77-7-8.4s3.14-8.4,7-8.4c3.09,0,5.7,2.4,6.63,5.72a.51.51,0,0,0,.87.21,10.8,10.8,0,0,1,7.89-3.13,11.3,11.3,0,0,1,6.49,1.94.28.28,0,0,0,.42-.1c1-2,2.57-3.24,4.28-3.24s3.41,1.39,4.43,3.53a.32.32,0,0,0,.59,0,6.24,6.24,0,0,1,5.48-3.54,6.13,6.13,0,0,1,5.23,3.13.09.09,0,0,0,.15,0,7.22,7.22,0,0,1,5.81-3.13C192.29,186.56,195.73,190.63,195.73,195.66Z"/><path class="cls-1" d="M66,192.38c0,8.77,6.3,12.07,9.16,12.07a8.19,8.19,0,0,0,5.09-1.82.85.85,0,0,1,1.09.06A11.49,11.49,0,0,0,98,202.51a.85.85,0,0,1,1-.19,4.58,4.58,0,0,0,2,.43,5,5,0,0,0,3-1.09.88.88,0,0,1,.94,0,8.57,8.57,0,0,0,4.25,1.11c4.55,0,8.23-3.41,8.23-7.64s-3.68-7.65-8.23-7.65a9,9,0,0,0-3,.5,1.3,1.3,0,0,1-1.39-.31,5.26,5.26,0,0,0-3.89-1.89,4.53,4.53,0,0,0-1.82.38,3.46,3.46,0,0,1-3.22-.23,11.55,11.55,0,0,0-12.78.16.86.86,0,0,1-1.1-.15,8.59,8.59,0,0,0-6.79-3.56c-4.34,0-9.16,5-9.16,10"/></g></svg>