<svg xmlns="http://www.w3.org/2000/svg" viewBox="0 0 300 300"><defs><style>.cls-1{fill:#e20613;}.cls-1,.cls-2,.cls-3,.cls-4,.cls-5{stroke:#303031;stroke-miterlimit:10;}.cls-1,.cls-3,.cls-4,.cls-5{stroke-width:4px;}.cls-2,.cls-5{fill:none;}.cls-2{stroke-width:2px;}.cls-3{fill:#fff;}.cls-4{fill:#26358b;}</style></defs><title>ebola</title><g id="Layer_6" data-name="Layer 6"><rect class="cls-1" x="33" y="69" width="241" height="152"/><path class="cls-2" d="M256.32,108a6.22,6.22,0,0,0,0,3,5.94,5.94,0,0,0,.93,2"/><path class="cls-2" d="M265.77,90.19a2.2,2.2,0,0,0,.45-1.33c0-.74-.53-1-.79-1.81a3.61,3.61,0,0,1,.05-2.24"/><path class="cls-2" d="M266.78,116.84c.69-1.76.52-2.66.19-3.16-.54-.8-1.51-.57-2.28-1.42a3.92,3.92,0,0,1-.71-2.9"/><path class="cls-2" d="M256.52,84.93a2.13,2.13,0,0,0-.14,1.4c.19.71.74.88,1.16,1.56a3.51,3.51,0,0,1,.45,2.18"/><path class="cls-2" d="M41.12,162.36a2.13,2.13,0,0,0-.42,1.33c0,.74.54,1,.82,1.8a3.55,3.55,0,0,1,0,2.24"/><path class="cls-2" d="M39.62,135.73c-.66,1.78-.47,2.67-.13,3.16.55.79,1.52.54,2.3,1.37a3.92,3.92,0,0,1,.77,2.89"/><path class="cls-2" d="M266,139.19c1.4-1.18,1.66-2.05,1.6-2.66-.1-1-1.05-1.29-1.34-2.44a3.91,3.91,0,0,1,.7-2.9"/><path class="cls-2" d="M257.63,157.91a6.11,6.11,0,0,0,.2,3,5.84,5.84,0,0,0,1.06,1.93"/><path class="cls-2" d="M269.35,163.91a6.11,6.11,0,0,0,.42-3,5.92,5.92,0,0,0-.64-2.13"/><path class="cls-2" d="M256.69,138.91a6.28,6.28,0,0,0,.21,3,5.66,5.66,0,0,0,1.06,1.93"/><path class="cls-2" d="M263.22,164.62a2,2,0,0,0,.92-1c.25-.69-.09-1.19,0-2a3.46,3.46,0,0,1,.89-2"/><path class="cls-2" d="M252.06,207.62a2,2,0,0,0,.91-1c.25-.69-.08-1.19,0-2a3.42,3.42,0,0,1,.9-2"/><path class="cls-2" d="M259.5,184.62a2,2,0,0,0,.91-1c.25-.69-.08-1.19,0-2a3.46,3.46,0,0,1,.89-2"/><path class="cls-2" d="M38,185.62a2,2,0,0,0,.92-1c.24-.69-.09-1.19,0-2a3.46,3.46,0,0,1,.89-2"/><path class="cls-2" d="M41.5,209.53c-.11-1-1.06-1.29-1.34-2.44a3.91,3.91,0,0,1,.7-2.9"/><path class="cls-2" d="M267.49,208.91a6.23,6.23,0,0,0,.42-3,5.92,5.92,0,0,0-.64-2.13"/><path class="cls-2" d="M259.5,209.62a2,2,0,0,0,.91-1c.25-.69-.08-1.19,0-2a3.46,3.46,0,0,1,.89-2"/><path class="cls-3" d="M111.16,110c1.86,1,4.92-.12,6.52,0a13.68,13.68,0,0,0,5.58-1c4.09-1.29,6.14-1.94,7.44-2,4.91-.24,5.68,3.33,10.24,3,3.53-.26,3.46-2.42,7.44-3,2.88-.42,3.4.64,10.24,2,4.16.83,6.25,1.24,8.37,1,5.14-.57,5.52-3.18,9.31-3,4,.19,4.51,3.12,9.3,4,2.84.52,3.7-.31,8.38-1a53.73,53.73,0,0,1,14.88,0c7.59,1.14,9.14,3.51,13,2,3.1-1.2,3.15-3.11,6.52-4,1.72-.46,2.47-.16,9.3,1s7.92,1.18,9.31,1c3.47-.45,3.22-1.53,6.51-2,4.78-.69,6.37,1.42,11.16,1,2.21-.19,7.17-.86,9.31-2V92c-2.38.2-8.34-1.53-12.1-2-4.69-.59-6,3.42-11.16,4-6,.67-7-4-14-4-5.24,0-5.23,2.7-11.17,3-6.38.32-7.18-2.72-13-2-4.88.6-5.76,2.89-10.24,3-4,.1-5.58-5-9.3-5h0c-6,1.21-8.59,2.65-9.63,3.43a3.89,3.89,0,0,1-1.8.76c-5.85,1-7-1.61-9-2.19a50.65,50.65,0,0,0-12.1-2c-2.24-.18-2.95-1.47-7.45-1-3.07.32-1.44,3.1-7.44,3-4.74-.08-10.83-3.12-12.1-3-6.5.61-7.44,4-12.09,4-2,0-7.33-.94-10.24-3"/><path class="cls-3" d="M274,184c-2.14,1.14-7.1,1.81-9.31,2-4.79.42-6.38-1.69-11.16-1-3.29.47-3,1.55-6.51,2-1.39.18-2.52.15-9.31-1s-7.58-1.46-9.3-1c-3.37.89-3.42,2.8-6.52,4-3.89,1.51-6.37-4.86-14-6-7.2-1.09-12.09,3-14,4-4.22,2.27-5.54,1.52-8.38,1-4.79-.88-5.32-3.81-9.3-4-3.79-.18-4.17,2.43-9.31,3-2.12.24-4.21-.17-8.37-1-6.84-1.36-7.36-2.42-10.24-2-4,.58-3.91,2.74-7.44,3-4.56.33-5.33-3.24-10.24-3-1.3.06-3.35.71-7.44,2a13.68,13.68,0,0,1-5.58,1,44.28,44.28,0,0,1-6.52,0c-7.4-.76-8.36-4.15-13-4-5,.17-4.88,4.15-10.24,5-6.71,1.07-8.74-4.88-15.82-4-4.87.6-4.8,3.52-10.23,4-3.69.32-5.2-.89-11.17-2-5.71-1.06-7.67-2-10.24-1-2.3.92-6.58,2.73-7.44,4v14c5.58-2,11.46,1.37,14,1,4.87-.72,6-4.33,10.23-4,3.67.28,4.07,3,9.31,4A21.18,21.18,0,0,0,73,204c4.35-.47,5.11-1.45,8.38-2,6.16-1,7,1.84,13,1,5.55-.77,5.23-3.22,9.31-3,5,.27,6.35,4,12.09,4a55.84,55.84,0,0,0,5.59-1c7.62-1.51,8-1.95,10.23-2,4.21-.1,4.12,1.4,9.31,2,4.11.48,7.25-.1,12.09-1,8-1.47,8.91-3,12.1-2,3.89,1.25,4.38,4.16,7.45,4,3.27-.17,3.89-3.56,7.44-4,2.87-.36,3.59,1.71,7.44,3,4.31,1.44,8.2.46,14-1,6-1.52,8-3.25,11.17-2,2.53,1,2.37,2.48,4.65,3,4.13.95,6-3.61,10.23-3,3.25.47,3,3.28,6.52,4,1.19.24,2.14.11,10.23-3,4.77-1.83,5.28-2.11,6.52-2,3.14.27,3.41,2.37,7.44,4,1.39.56,6.3,2.54,10.24,0,2.2-1.42,5.11-2.71,5.58-4"/><path class="cls-3" d="M274,157c-1.29.5-7,2.07-9.31,2-4.48-.14-5.76-2.48-9.3-2s-3.37,2.8-6.51,3c-3.53.23-4.28-2.66-8.38-3-2.61-.22-3.16.88-7.44,2a33.41,33.41,0,0,1-10.24,1c-7.17-.52-7.95-3.73-13-3-4.16.6-4.36,2.85-8.38,3s-5-2.18-9.3-3c-6.09-1.15-7,3-14,3-7.55,0-9.29-4.84-14.89-3-3.29,1.08-4.26,3.28-7.44,3-2.83-.25-3.57-2.1-6.52-2-2.53.09-3,1.48-5.58,2-3.46.68-4.14-1.47-8.37-2-5.61-.7-6.72,2.8-13,2-2.63-.33-3-1-5.58-1-3.55,0-4.23,1.26-7.45,1-3.06-.25-3.37-1.44-5.58-1s-2.48,1.7-4.65,2c-1.79.25-2.65-.45-4.66-1-2.68-.73-4.74-.47-8.37,0-6,.77-6.06,2.42-9.31,2-3.87-.51-3.85-2.86-7.44-3s-4.28,2.24-8.37,2c-2.8-.16-3.12-1.31-5.59-1-2.86.36-3.18,2-5.58,2-2.76,0-3-2.18-5.58-2-2.36.17-3.1,2.12-5.59,2-1.19-.06-4.94-2.57-5.58-3V148c1.73-.66,7.15-6.37,10.24-6,4.49.54,9.92,3.81,13.95,4s4.75-2,9.31-2c3.79,0,3.71,1.58,7.44,2,7.19.81,9.72-4.68,15.82-3,2.61.72,3,2,5.58,2,3.35,0,4.36-2.08,7.45-3,4.78-1.43,6.09,2.51,13,3,6.08.43,6.42-2.5,13-2,5.43.41,5.93,2.44,10.24,2,5.29-.54,5.59-3.72,10.23-4,5.23-.32,6.1,3.62,12.1,4,3.91.25,3.54-1.42,11.17-3,6.61-1.37,10.83-2.24,14.88,0,2.62,1.44,3.51,3.27,5.59,3,2.75-.36,2.82-3.8,5.58-5,4.11-1.79,6.9,4.56,14,5,5.32.33,5.84-3.15,12.09-3,5.64.13,5.79,3,11.17,3,6.29,0,7.48-3.84,13-3,4.6.7,5,3.54,8.37,3,4.16-.67,5.6-5.3,9.31-5,1.65.14,6.65,3.19,7.44,4"/><path class="cls-2" d="M119.54,83c-1.09,1.51-1.14,2.43-.93,3,.32.92,1.32,1,1.86,2a4,4,0,0,1,0,3"/><path class="cls-2" d="M236.78,109c-1.08,1.51-1.13,2.43-.93,3,.33.92,1.32,1,1.86,2a4,4,0,0,1,0,3"/><path class="cls-2" d="M201.67,86.17c-1.47,1.07-1.79,1.92-1.76,2.53,0,1,1,1.36,1.18,2.53a3.92,3.92,0,0,1-.88,2.85"/><path class="cls-2" d="M204.83,109.27c-.55,1.82-.31,2.7.06,3.16.6.75,1.54.43,2.38,1.21a3.87,3.87,0,0,1,.93,2.83"/><path class="cls-2" d="M119.54,111c-1.09,1.51-1.14,2.43-.93,3,.32.92,1.32,1,1.86,2a4,4,0,0,1,0,3"/><path class="cls-2" d="M157.69,110c-1.09,1.51-1.14,2.43-.93,3,.32.92,1.32,1,1.86,2a4,4,0,0,1,0,3"/><path class="cls-2" d="M128.84,84a6.22,6.22,0,0,0,0,3,6.14,6.14,0,0,0,.93,2"/><path class="cls-2" d="M187.4,117a6.11,6.11,0,0,0-.15-3,6,6,0,0,0-1-2"/><path class="cls-2" d="M249.81,89a6.09,6.09,0,0,0,0,3,5.75,5.75,0,0,0,.93,2"/><path class="cls-2" d="M169.22,115.83a6,6,0,0,0-.68-2.91,5.48,5.48,0,0,0-1.35-1.7"/><path class="cls-2" d="M143.73,85a2,2,0,0,0-.93,1c-.26.68.06,1.19,0,2a3.41,3.41,0,0,1-.93,2"/><path class="cls-2" d="M136.29,110a2,2,0,0,0-.93,1c-.27.68.06,1.19,0,2a3.38,3.38,0,0,1-.94,2"/><path class="cls-2" d="M167.81,89.19a2.12,2.12,0,0,0,.57-1.27c0-.74-.42-1.1-.61-1.89a3.53,3.53,0,0,1,.26-2.22"/><path class="cls-2" d="M221.89,113a2,2,0,0,0-.93,1c-.26.68.06,1.19,0,2a3.41,3.41,0,0,1-.93,2"/><path class="cls-2" d="M228.1,92.17a2,2,0,0,0,.66-1.22c.09-.73-.34-1.13-.47-1.93a3.42,3.42,0,0,1,.42-2.19"/><path class="cls-2" d="M214.19,92.09a2.24,2.24,0,0,0,.18-1.4c-.18-.71-.73-.9-1.14-1.59a3.52,3.52,0,0,1-.39-2.19"/><path class="cls-2" d="M186.91,84.87a2.22,2.22,0,0,0-.24,1.4c.14.71.68.94,1.06,1.64a3.56,3.56,0,0,1,.29,2.22"/><path class="cls-2" d="M156.64,89.05a2.22,2.22,0,0,0,.1-1.42c-.22-.69-.77-.85-1.22-1.51A3.51,3.51,0,0,1,155,84"/><path class="cls-2" d="M178,92.19a2.12,2.12,0,0,0,.57-1.27c0-.74-.42-1.1-.6-1.89a3.48,3.48,0,0,1,.27-2.22"/><path class="cls-2" d="M194.76,118c1.21-1.39,1.34-2.3,1.19-2.89-.24-.95-1.23-1.1-1.67-2.18a4,4,0,0,1,.26-3"/><path class="cls-2" d="M146.52,107c-1.08,1.51-1.13,2.43-.93,3,.33.92,1.32,1,1.86,2a4,4,0,0,1,0,3"/><path class="cls-2" d="M177.7,115c1.32-1.29,1.52-2.18,1.41-2.78-.17-1-1.14-1.2-1.5-2.32a3.91,3.91,0,0,1,.5-3"/><path class="cls-2" d="M248.42,118c1-1.59,1-2.51.73-3.06-.39-.9-1.38-.86-2-1.85a4,4,0,0,1-.21-3"/><path class="cls-2" d="M240.64,89.19a2.14,2.14,0,0,0,.45-1.33c0-.74-.52-1-.78-1.81a3.47,3.47,0,0,1,.05-2.24"/><path class="cls-2" d="M229.48,113.19a2.2,2.2,0,0,0,.45-1.33c0-.74-.53-1-.79-1.81a3.61,3.61,0,0,1,.05-2.24"/><path class="cls-2" d="M221.1,91.19a2.14,2.14,0,0,0,.45-1.33c0-.74-.52-1-.79-1.81a3.56,3.56,0,0,1,.06-2.24"/><path class="cls-2" d="M187.45,166.44c1.06-1.54,1.09-2.45.88-3-.34-.91-1.34-.94-1.9-2a4,4,0,0,1-.05-3"/><path class="cls-2" d="M69.76,142.93c1-1.53,1.09-2.45.87-3-.34-.91-1.33-.93-1.9-2a4,4,0,0,1,0-3"/><path class="cls-2" d="M105.28,167c1.45-1.1,1.75-1.95,1.72-2.56-.06-1-1-1.35-1.23-2.51a3.87,3.87,0,0,1,.83-2.86"/><path class="cls-2" d="M101.69,142c.52-1.83.26-2.71-.11-3.16-.61-.74-1.55-.4-2.4-1.17a3.81,3.81,0,0,1-1-2.8"/><path class="cls-2" d="M186.94,142.45c1.06-1.54,1.09-2.46.88-3-.35-.92-1.34-.94-1.9-2a4,4,0,0,1-.06-3"/><path class="cls-2" d="M148.82,142.26c1.05-1.54,1.08-2.46.87-3-.34-.92-1.34-.94-1.9-2a4,4,0,0,1,0-3"/><path class="cls-2" d="M178.13,165.64a6.14,6.14,0,0,0,0-3,5.65,5.65,0,0,0-1-2"/><path class="cls-2" d="M119,137.91a6.11,6.11,0,0,0,.2,3,6,6,0,0,0,1.06,1.93"/><path class="cls-2" d="M50.24,144.35a6.17,6.17,0,0,0-.06-3,5.85,5.85,0,0,0-1-2"/><path class="cls-2" d="M57.1,165.21a6.17,6.17,0,0,0-.06-3,5.85,5.85,0,0,0-1-2"/><path class="cls-2" d="M137.17,140.67a6.18,6.18,0,0,0,.74,2.9,5.71,5.71,0,0,0,1.38,1.67"/><path class="cls-2" d="M163.23,163a2,2,0,0,0,.91-1c.25-.68-.08-1.18,0-2a3.37,3.37,0,0,1,.9-2"/><path class="cls-2" d="M170.21,141.8a2,2,0,0,0,.91-1c.25-.68-.08-1.18,0-2a3.46,3.46,0,0,1,.89-2"/><path class="cls-2" d="M139.07,159.28a2.13,2.13,0,0,0-.54,1.28c0,.74.44,1.09.65,1.88a3.55,3.55,0,0,1-.23,2.22"/><path class="cls-2" d="M84.57,142.62a2.06,2.06,0,0,0,.91-1c.25-.69-.08-1.19,0-2a3.42,3.42,0,0,1,.9-2"/><path class="cls-2" d="M78.74,161.57a2.16,2.16,0,0,0-.64,1.24c-.07.73.37,1.12.52,1.92a3.58,3.58,0,0,1-.38,2.2"/><path class="cls-2" d="M92.65,159.36a2.19,2.19,0,0,0-.15,1.4c.19.71.74.89,1.16,1.57a3.46,3.46,0,0,1,.44,2.18"/><path class="cls-2" d="M120.06,166a2.17,2.17,0,0,0,.21-1.4c-.15-.72-.69-.93-1.08-1.62a3.53,3.53,0,0,1-.34-2.21"/><path class="cls-2" d="M150.24,159.18a2.31,2.31,0,0,0-.07,1.42c.23.69.79.83,1.25,1.48a3.52,3.52,0,0,1,.55,2.16"/><path class="cls-2" d="M128.79,158.49a2.17,2.17,0,0,0-.55,1.29c0,.73.44,1.09.65,1.87a3.58,3.58,0,0,1-.23,2.23"/><path class="cls-2" d="M111.61,137.05c-1.19,1.42-1.31,2.33-1.14,2.92.26.94,1.24,1.07,1.71,2.14a4,4,0,0,1-.21,3"/><path class="cls-2" d="M160,143c1.06-1.54,1.09-2.46.88-3-.34-.91-1.34-.94-1.9-2a4,4,0,0,1,0-3"/><path class="cls-2" d="M128.71,135.72c-1.29,1.32-1.47,2.21-1.36,2.81.19,1,1.16,1.18,1.55,2.29a3.93,3.93,0,0,1-.44,3"/><path class="cls-2" d="M58,138.2c-1,1.62-.92,2.53-.67,3.08.41.88,1.4.83,2,1.81a3.92,3.92,0,0,1,.25,3"/><path class="cls-2" d="M66.26,160.82a2.19,2.19,0,0,0-.43,1.34c0,.73.55,1,.82,1.8a3.5,3.5,0,0,1,0,2.23"/><path class="cls-2" d="M50.47,167.42a2.25,2.25,0,0,0,.11-1.41c-.2-.7-.76-.87-1.19-1.53a3.52,3.52,0,0,1-.49-2.18"/><path class="cls-2" d="M77,140.59a2.16,2.16,0,0,0-.42,1.34c0,.73.54,1,.82,1.79a3.55,3.55,0,0,1,0,2.24"/><path class="cls-2" d="M85.76,160.41a2.14,2.14,0,0,0-.43,1.34c0,.73.55,1,.82,1.79a3.53,3.53,0,0,1,0,2.24"/><path class="cls-2" d="M93.87,145.19c1.4-1.18,1.66-2.05,1.6-2.66-.11-1-1.06-1.29-1.34-2.44a3.87,3.87,0,0,1,.7-2.9"/><path class="cls-2" d="M195.29,167.19c1.4-1.18,1.66-2.05,1.6-2.66-.1-1-1-1.29-1.34-2.44a3.91,3.91,0,0,1,.7-2.9"/><path class="cls-2" d="M213.9,144.19c1.4-1.18,1.66-2.05,1.6-2.66-.1-1-1.05-1.29-1.34-2.44a3.91,3.91,0,0,1,.7-2.9"/><path class="cls-2" d="M248.33,159.76c-.33,1.87,0,2.71.42,3.13.68.66,1.58.23,2.5.89a3.87,3.87,0,0,1,1.25,2.68"/><path class="cls-2" d="M244.77,134.35c-.86,1.67-.78,2.58-.49,3.12.45.85,1.44.73,2.12,1.67a3.94,3.94,0,0,1,.42,3"/><path class="cls-2" d="M229.62,159.82c-.28,1.89.08,2.72.51,3.11.69.65,1.59.18,2.52.81a3.77,3.77,0,0,1,1.33,2.64"/><path class="cls-2" d="M227.87,142.62a2.06,2.06,0,0,0,.91-1c.25-.69-.09-1.19,0-2a3.46,3.46,0,0,1,.89-2"/><path class="cls-2" d="M222.14,136.59a2.23,2.23,0,0,0-.43,1.34c0,.73.55,1,.83,1.79a3.55,3.55,0,0,1,0,2.24"/><path class="cls-2" d="M237.17,145.19c1.4-1.18,1.66-2.05,1.59-2.66-.1-1-1-1.29-1.33-2.44a3.91,3.91,0,0,1,.69-2.9"/><path class="cls-2" d="M211.12,163.62a2.06,2.06,0,0,0,.91-1c.25-.69-.09-1.19,0-2a3.42,3.42,0,0,1,.9-2"/><path class="cls-2" d="M240.75,158.59a2.23,2.23,0,0,0-.43,1.34c.05.73.55,1,.83,1.79a3.55,3.55,0,0,1,0,2.24"/><path class="cls-2" d="M218.56,166.19c1.4-1.18,1.66-2.05,1.59-2.66-.1-1-1.05-1.29-1.33-2.44a3.91,3.91,0,0,1,.69-2.9"/><path class="cls-2" d="M204.73,159.41a2.17,2.17,0,0,0-.6,1.26c0,.73.4,1.11.57,1.9a3.55,3.55,0,0,1-.32,2.21"/><path class="cls-2" d="M197.05,135.82c-.28,1.89.08,2.72.51,3.11.7.65,1.59.18,2.52.81"/><path class="cls-2" d="M206.32,136.59a2.16,2.16,0,0,0-.42,1.34c0,.73.54,1,.82,1.79a3.55,3.55,0,0,1,0,2.24"/><path class="cls-2" d="M179.92,140.64c.71-1.75.56-2.65.24-3.16-.53-.81-1.5-.59-2.26-1.46a3.88,3.88,0,0,1-.66-2.91"/><path class="cls-2" d="M169.79,164.8a2.07,2.07,0,0,0,.73-1.18c.13-.72-.29-1.15-.38-2a3.58,3.58,0,0,1,.54-2.16"/><path class="cls-2" d="M225.07,200.76c-.34,1.87,0,2.71.42,3.13.67.66,1.58.23,2.5.89a3.87,3.87,0,0,1,1.25,2.68"/><path class="cls-2" d="M235.29,203.91a6.37,6.37,0,0,0,.2,3,5.83,5.83,0,0,0,1.07,1.93"/><path class="cls-2" d="M248,204.91a6.23,6.23,0,0,0,.42-3,5.92,5.92,0,0,0-.64-2.13"/><path class="cls-2" d="M240.89,207.62a2,2,0,0,0,.91-1c.25-.69-.08-1.19,0-2a3.46,3.46,0,0,1,.89-2"/><path class="cls-2" d="M210.19,206.62a2.06,2.06,0,0,0,.91-1c.25-.69-.09-1.19,0-2a3.46,3.46,0,0,1,.89-2"/><path class="cls-2" d="M186,187.62a2,2,0,0,0,.92-1c.24-.69-.09-1.19,0-2a3.46,3.46,0,0,1,.89-2"/><path class="cls-2" d="M163.66,206.62a2,2,0,0,0,.91-1c.25-.69-.08-1.19,0-2a3.39,3.39,0,0,1,.89-2"/><path class="cls-2" d="M140,180.43a2.17,2.17,0,0,0-.36,1.36c.08.73.6,1,.91,1.74a3.62,3.62,0,0,1,.1,2.24"/><path class="cls-2" d="M83.64,207.62a2.06,2.06,0,0,0,.91-1c.25-.69-.08-1.19,0-2a3.42,3.42,0,0,1,.9-2"/><path class="cls-2" d="M56.65,186.62a2,2,0,0,0,.92-1c.24-.69-.09-1.19,0-2a3.46,3.46,0,0,1,.89-2"/><path class="cls-2" d="M84.64,186.93c1.06-1.53,1.09-2.45.88-3-.34-.91-1.34-.93-1.9-2a4,4,0,0,1-.05-3"/><path class="cls-2" d="M103.18,206.62a2.06,2.06,0,0,0,.91-1c.25-.69-.08-1.19,0-2a3.42,3.42,0,0,1,.9-2"/><path class="cls-2" d="M97.45,176.59a2.16,2.16,0,0,0-.42,1.34c0,.73.54,1,.82,1.79a3.55,3.55,0,0,1,0,2.24"/><path class="cls-2" d="M58.59,208.93c1.06-1.53,1.09-2.45.88-3-.35-.91-1.34-.93-1.9-2a4,4,0,0,1-.06-3"/><path class="cls-2" d="M134,209.93c1.06-1.53,1.09-2.45.88-3-.35-.91-1.34-.93-1.9-2a4,4,0,0,1-.06-3"/><path class="cls-2" d="M164.53,178.05c-.76,1.73-.63,2.63-.32,3.14.51.83,1.48.65,2.22,1.53a3.93,3.93,0,0,1,.59,2.94"/><path class="cls-2" d="M214.44,183.44c1.05-1.54,1.09-2.45.87-3-.34-.91-1.33-.94-1.89-2a4,4,0,0,1-.06-3"/><path class="cls-2" d="M205.12,182.64a6.17,6.17,0,0,0-.06-3,5.85,5.85,0,0,0-1-2"/><path class="cls-2" d="M198.22,183.62a2.26,2.26,0,0,0,0-1.41c-.26-.68-.83-.79-1.32-1.41a3.43,3.43,0,0,1-.66-2.12"/><path class="cls-2" d="M186.51,207.64a6.17,6.17,0,0,0-.06-3,5.85,5.85,0,0,0-1-2"/><path class="cls-2" d="M178.68,207.62a2.26,2.26,0,0,0,0-1.41c-.26-.68-.83-.79-1.32-1.41a3.43,3.43,0,0,1-.66-2.12"/><path class="cls-2" d="M178.13,183.64a6.14,6.14,0,0,0,0-3,5.65,5.65,0,0,0-1-2"/><path class="cls-2" d="M141.84,208.64a6.14,6.14,0,0,0-.05-3,5.65,5.65,0,0,0-1-2"/><path class="cls-2" d="M109.28,185.64a6.3,6.3,0,0,0-.06-3,5.65,5.65,0,0,0-1-2"/><path class="cls-2" d="M118.2,181.81a6,6,0,0,0,.64,2.92,5.4,5.4,0,0,0,1.33,1.71"/><path class="cls-2" d="M73,183.64a6.3,6.3,0,0,0-.06-3,5.65,5.65,0,0,0-1-2"/><path class="cls-2" d="M50.65,208.64a6.14,6.14,0,0,0,0-3,5.65,5.65,0,0,0-1-2"/><path class="cls-2" d="M148.77,211.19c1.4-1.18,1.66-2.05,1.6-2.66-.11-1-1.06-1.29-1.34-2.44a3.87,3.87,0,0,1,.7-2.9"/><path class="cls-2" d="M155.14,178.59a2.16,2.16,0,0,0-.42,1.34c0,.73.54,1,.82,1.79a3.55,3.55,0,0,1,0,2.24"/><path class="cls-2" d="M114.34,212.19c1.4-1.18,1.66-2.05,1.6-2.66-.11-1-1.06-1.29-1.34-2.44a3.91,3.91,0,0,1,.7-2.9"/><path class="cls-2" d="M130,178.59a2.23,2.23,0,0,0-.43,1.34c0,.73.55,1,.83,1.79a3.55,3.55,0,0,1,0,2.24"/><path class="cls-2" d="M48.94,184.53c-.1-1-1-1.29-1.34-2.44a3.91,3.91,0,0,1,.7-2.9"/><path class="cls-2" d="M72.92,205.16c.18,1,1.15,1.19,1.53,2.31a3.91,3.91,0,0,1-.47,2.95"/><path class="cls-2" d="M220,208.91a6.11,6.11,0,0,0,.42-3,5.92,5.92,0,0,0-.64-2.13"/><path class="cls-2" d="M248,185.91a6.23,6.23,0,0,0,.42-3,5.92,5.92,0,0,0-.64-2.13"/><path class="cls-2" d="M204.22,207.91a6.26,6.26,0,0,0,.41-3,5.92,5.92,0,0,0-.64-2.13"/><path class="cls-2" d="M195.83,212.44c1-1.54,1.09-2.45.87-3-.34-.91-1.33-.94-1.89-2a4,4,0,0,1-.06-3"/><path class="cls-2" d="M125.11,211.44c1.06-1.54,1.09-2.45.88-3-.35-.91-1.34-.94-1.9-2a4,4,0,0,1-.06-3"/><path class="cls-2" d="M93.73,203.75c-.51,1.83-.25,2.7.13,3.16.61.73,1.55.39,2.4,1.15a3.86,3.86,0,0,1,1,2.8"/><path class="cls-2" d="M66.33,185.31c.74-1.74.59-2.64.27-3.15-.51-.81-1.49-.61-2.24-1.49a3.89,3.89,0,0,1-.63-2.92"/><path class="cls-2" d="M65.82,203.59a2.17,2.17,0,0,0-.43,1.34c0,.73.54,1,.82,1.79a3.54,3.54,0,0,1,0,2.24"/><path class="cls-2" d="M157.93,201.59a2.23,2.23,0,0,0-.42,1.34c0,.73.54,1,.82,1.79a3.54,3.54,0,0,1,0,2.24"/><path class="cls-2" d="M224,180.59a2.16,2.16,0,0,0-.42,1.34c0,.73.54,1,.82,1.79a3.55,3.55,0,0,1,0,2.24"/><path class="cls-2" d="M231.65,177.29c-1.18,1.42-1.29,2.33-1.13,2.92.26.94,1.25,1.06,1.72,2.14a4,4,0,0,1-.2,3"/><path class="cls-2" d="M241.53,186.2c.82-1.69.73-2.6.44-3.12-.47-.85-1.46-.71-2.16-1.63a3.94,3.94,0,0,1-.48-2.95"/><path class="cls-2" d="M269.25,184.74a2.22,2.22,0,0,0,.27-1.38c-.12-.73-.65-1-1-1.68a3.53,3.53,0,0,1-.23-2.22"/><rect class="cls-4" x="33" y="69" width="78.16" height="59"/><rect class="cls-5" x="33" y="70" width="241" height="152"/></g></svg>