<svg id="Layer_1" data-name="Layer 1" xmlns="http://www.w3.org/2000/svg" viewBox="0 0 300 300"><defs><style>.cls-1{fill:none;stroke-width:4px;}.cls-1,.cls-2{stroke:#303031;stroke-miterlimit:10;}.cls-2{fill:#303031;}</style></defs><title>illuminati</title><path class="cls-1" d="M149.08,26.47,16.82,255.55a2.89,2.89,0,0,0,2.51,4.35H283.85a2.9,2.9,0,0,0,2.52-4.35L154.11,26.47A2.9,2.9,0,0,0,149.08,26.47Z"/><path class="cls-1" d="M67.82,170.27c12-16,48.86-33.53,83.85-33.94,33-.38,69.87,18,83.85,33.94,10.85,12.4-47.92,31.94-81.85,31.94C119.44,202.21,57.74,183.71,67.82,170.27Z"/><ellipse class="cls-1" cx="151.67" cy="169.27" rx="23.96" ry="30.94"/><circle class="cls-2" cx="151.67" cy="168.27" r="7.99"/></svg>