<svg id="Layer_1" data-name="Layer 1" xmlns="http://www.w3.org/2000/svg" viewBox="0 0 300 300"><defs><style>.cls-1{fill:none;stroke:#303031;stroke-miterlimit:10;stroke-width:4px;}</style></defs><title>lochness</title><path class="cls-1" d="M15.2,213.46c7.16-7.56,18.38-16.83,33.07-18.19,21-2,27.64,14.21,51.25,14.88,24.43.69,27.74-16.3,51.25-14.88s26.26,18.6,47.95,18.19c19.66-.38,24.5-14.63,44.64-16.54,17.93-1.7,33.69,7.74,44.64,16.54"/><path class="cls-1" d="M71.41,198.58c6.92-8.39,33.07-19.84,48-21.5s37.07.29,54.56,8.27c3,1.36,5.9,2.93,8.27,1.65,5-2.71,1.35-14.88,0-33.06-1.11-14.81-3.31-29.76-1.66-54.56,1.47-22,6.47-25.68,9.92-28.11,8.75-6.17,30.11-3.42,36.38,6.61,8.26,13.23,1.65,23.15-5,23.15-7.74,0-10.89-6.78-16.54-3.31-5.28,3.26-4.14,13.13-3.3,23.15,1.65,19.84,8.26,61.17,8.26,90.93"/></svg>