<svg xmlns="http://www.w3.org/2000/svg" viewBox="0 0 300 300"><defs><style>.cls-1,.cls-2,.cls-3{fill:none;stroke:#303031;stroke-miterlimit:10;}.cls-1{stroke-width:4px;}.cls-2{stroke-width:2px;}.cls-3{stroke-width:3px;}</style></defs><title>malala</title><g id="malala"><path class="cls-1" d="M255,255c-2.58-3.33-6.49-8.49-11-15-6.84-9.87-8-12.63-11-16-7.79-8.77-14.24-3.52-28-13-3.45-2.38-5-4-10-7a95.58,95.58,0,0,0-14-7c-15.36-6.24-24.45-6.88-32-10-14.12-5.84-20.55-19.28-27-32-9.34-18.41-10.28-35.17-11-48a141.4,141.4,0,0,1,1-27c1.61-11.6,4.89-19.2,11-27,2.69-3.43,3.78-5.39,7-7,4-2,7.86-3.59,9-4,2-.71,4.11-1.93,16-1,8,.62,13,.94,16,2,10.6,3.79,14.42,6.59,18,12a61.78,61.78,0,0,1,8,18c2.41,8.52,1.25,10.51,3,21,2.66,15.92,6.14,16.11,7,27,.59,7.52-.94,13.68-4,26-4.09,16.45-6.13,24.67-11,29-2.27,2-7.53,5.86-10,13-.57,1.65-.85,7.07-1,8"/><path class="cls-1" d="M191,202c1-6,3.75-9.49,6-11,3.74-2.51,6.49-4.4,8-8,1-2.35.07-6.55,0-8"/><path class="cls-1" d="M199,181a40.4,40.4,0,0,0,6-6,32,32,0,0,0,4-6c2.3-4.75,1.51-8.06,2-13,.66-6.61,2.8-7.95,5-15,2.53-8.1,2.3-14.64,2-23a107,107,0,0,0-5-28c-2.67-9-3.68-8.69-7-20-2.2-7.48-3.53-7.22-6-12-1.32-2.56-5.46-8-11-13-7.93-7.13-14.41-8.36-21-10-9.25-2.31-19.68-5.41-33,0-9,3.67-13.42,7.62-21,16-5.87,6.49-9.43,9.19-11,13a74.46,74.46,0,0,0-3,12,63.35,63.35,0,0,0,0,23"/><path class="cls-1" d="M101,72c-3.7,6.91-8.26,15.94-9,20,0,0-3,6.9-1,20,.16,1.07-1.45,4.44-1,8,.72,5.7.6,6.75,1,9,.91,5.16,2.55,5.71,5,12,3,7.81,1.29,9,4,15,2,4.54,3.12,4,8,11,6.85,9.83,5.67,12.23,11,18,1.7,1.84,5.13,4.23,12,9a181.87,181.87,0,0,0,17,11c6.77,3.74,6.17,2.62,17,8,12.09,6,13.19,7.57,18,8,4.57.41,5.76-.81,15-2,6.28-.81,15.5-2,19-2"/><path class="cls-1" d="M171,43c.29,1.64,1.53,7.11,1,10-.35,1.91-1.51,6.54-7,12-7.85,7.81-17.81,10.6-23,12-9,2.43-15.66,2.27-20,7a25.24,25.24,0,0,0-3,4.06,8.58,8.58,0,0,0-1.12,3.41A13,13,0,0,1,116,97c-1.34,2.12-4,6.36-5,7"/><path class="cls-1" d="M171,57c.71.66,3.77,4.69,5,6,3.39,3.6,3.85,4.88,6,7,3.45,3.4,4.28,2.11,7,5,2.08,2.22,2.21,3.63,5,9,1.6,3.07,4,6,5,6"/><path class="cls-1" d="M155,189a93.86,93.86,0,0,0,11-1c4-.79,10.85-2.76,16-6,1.84-1.16,8.56-4.79,12-8"/><path class="cls-2" d="M152,181a26.47,26.47,0,0,0,10,2,26.82,26.82,0,0,0,14-4"/><path class="cls-1" d="M51,230c5.19-7.81,9.66-14.27,13-19,6.65-9.43,16.27-22.65,20-21,.73.32,2,4,2,7"/><path class="cls-1" d="M102,159c.09,2.87-.9,9.88-1,13a147,147,0,0,1-2,20"/><path class="cls-1" d="M106,164c.27,2.47.81,12,2,16a69.62,69.62,0,0,0,9,18c6.49,9.27,23.11,24.7,48,40"/><path class="cls-1" d="M101,177c-.72.9-6.78,6.27-8,8a29.12,29.12,0,0,0-2,3c-1.59,3.48,1.87,9.35,6,13s6.11,2.53,12,6c3.42,2,6.28,5,12,11,9.08,9.51,8.05,10.23,13,14a101,101,0,0,0,13,8c2.45,1.31,4.53,2.31,6,3"/><path class="cls-1" d="M81,197a8,8,0,0,0,5,0,14.06,14.06,0,0,0,5-4"/><path class="cls-2" d="M78,194a14.33,14.33,0,0,0,1,8c.5,1.32,2.28,5.65,8,11,5.12,4.79,6.08,3.54,9,7,3.64,4.31,2.63,6.79,6,13,2.67,4.93,5.79,7.92,9,11a60.31,60.31,0,0,0,16,11"/><path class="cls-2" d="M111,230c8.87,5.61,13.44,11,16,15a27.46,27.46,0,0,0,7,8,25.69,25.69,0,0,0,8,4"/><path class="cls-2" d="M149,248q-2-2.48-4-5c-1.67-2.05-6.34-7.05-8-9"/><path class="cls-2" d="M152,223c5.36,2.08,9.79,3.78,13,5,5.78,2.2,7.11,2.68,8,3,6.77,2.41,7.55,2.35,12,4,8.1,3,8,4.12,12,5a26.24,26.24,0,0,0,14-1"/><path class="cls-2" d="M156,216a19.18,19.18,0,0,0,5,5,21.94,21.94,0,0,0,8,3c2.76.61,9.35,4.48,13,10"/><path class="cls-2" d="M154,194a23.43,23.43,0,0,1,9,3c3.69,2.18,4.93,4.38,7,6,2.88,2.25,12.21,3,23,0"/><path class="cls-1" d="M153,99a139.61,139.61,0,0,0-17-2c-6.88-.38-9,0-11,1-5.25,2.62-7.27,8.39-8,11"/><path class="cls-1" d="M169,99c4.23-.67,9.29-2.14,15-2,4.28.1,7.37-.44,11,1,2.25.9,5.92,4.1,7,5"/><path class="cls-3" d="M181.73,155.3a.26.26,0,0,0-.11-.42A33.33,33.33,0,0,1,173,150c-1.51-1.13-2.6-2.23-4-2-2,.33-2.31.92-4,1s-1.85-.31-4-1c-1.71-.55-3.13.46-8,3-2.41,1.26-5.26,3.1-6.7,3.85a.25.25,0,0,0-.07.4,24.25,24.25,0,0,0,35.5.05Z"/></g></svg>