<svg xmlns="http://www.w3.org/2000/svg" viewBox="0 0 300 300"><defs><style>.cls-1,.cls-4{fill:none;}.cls-1,.cls-2,.cls-3,.cls-4{stroke:#303031;stroke-miterlimit:10;}.cls-1,.cls-2{stroke-width:4px;}.cls-2,.cls-3{fill:#fff;}.cls-3,.cls-4{stroke-width:3px;}</style></defs><title>mkultra</title><g id="Layer_3" data-name="Layer 3"><path class="cls-1" d="M111.11,137.11c-4.79-1-14.18-3.74-22.75-6.5-24.18-7.79-25.56-13.47-39-15.17-15.69-2-18.9,5.09-39,4.33"/><path class="cls-1" d="M106.78,146.86c-4.79-1-13.1-4.82-21.67-7.58-24.18-7.8-24.47-11.3-37.93-13-15.68-2-20,2.92-40.09,2.16"/><path class="cls-1" d="M102.45,182.62a115.4,115.4,0,0,0,8.35,40.63c3.53,8.75,8.76,21.3,21.47,33.14,8.16,7.6,13,12.13,20.28,12.83,21.53,2.06,40.06-31.88,42.95-37.42,4.49-8.57,12.05-26.42,12.05-51.34"/><path class="cls-2" d="M209.72,181.54c-1.2.79-6.32,3.05-8.67,4.33-16.44,8.95-32.17,9.46-45.51,9.76A125.19,125.19,0,0,1,123,192.37c-6.69-1.67-18.7-7-22.75-8.66a58.14,58.14,0,0,1,2.17-28.18c1.11-3.28,9-25.29,32.5-34.67,6.88-2.74,23.73-7.86,41.18,0,18,8.11,25,24.81,28.17,32.51A71.54,71.54,0,0,1,209.72,181.54Z"/><path class="cls-1" d="M8.17,211.88A57.82,57.82,0,0,1,11.46,205c9.16-16.32,24-24.95,27.05-26.74,12.53-7.3,24.64-8.71,33.6-9.75a137.94,137.94,0,0,1,28.17,0"/><path class="cls-1" d="M100.28,178.29c-6.11-.71-15.82-2.27-26-1.09-9,1.05-21.06,2.46-33.59,9.76-2.61,1.52-12.46,10.41-20.74,23.52a89.43,89.43,0,0,0-7.43,14.4"/><path class="cls-3" d="M103.91,148.14a.21.21,0,0,1,0-.38,11.67,11.67,0,0,0,6.17-11.36.21.21,0,0,1,.31-.2l4,2a11.68,11.68,0,0,1-6.51,11.91Z"/><path class="cls-3" d="M98,180.26a.21.21,0,0,1-.18-.33A11.85,11.85,0,0,0,100,173a11.73,11.73,0,0,0-1.69-6,.21.21,0,0,1,.19-.32l4.45,0a11.81,11.81,0,0,1,1.9,6.31,11.94,11.94,0,0,1-2.47,7.25Z"/><path class="cls-3" d="M204.26,148.14a.21.21,0,0,0,0-.38,11.67,11.67,0,0,1-6.17-11.36.21.21,0,0,0-.31-.2l-4,2a11.65,11.65,0,0,0,6.5,11.91Z"/><path class="cls-1" d="M198.89,137.11c4.79-1,14.18-3.74,22.75-6.5,24.18-7.79,25.56-13.47,39-15.17,13.91-1.76,18,3.6,32.79,4.31"/><path class="cls-1" d="M203.22,146.86c4.79-1,13.1-4.82,21.67-7.58,24.18-7.8,24.47-11.3,37.93-13,11.76-1.49,17.12.89,27.55,1.86"/><path class="cls-1" d="M294.06,196a76.69,76.69,0,0,0-22.57-19.87c-12.53-7.3-24.64-8.71-33.6-9.75a137.94,137.94,0,0,0-28.17,0"/><path class="cls-1" d="M209.72,176.12c6.11-.71,15.82-2.27,26-1.08,9,1,21.06,2.45,33.59,9.75,2.61,1.52,12.46,10.41,20.74,23.52"/><path class="cls-3" d="M210.84,178.1a.22.22,0,0,0,.18-.34,11.92,11.92,0,0,1-2.22-6.92,11.73,11.73,0,0,1,1.69-6,.21.21,0,0,0-.18-.32l-4.46,0a11.81,11.81,0,0,0-1.9,6.31,12,12,0,0,0,2.47,7.26Z"/><path class="cls-1" d="M143.88,114.36a74.23,74.23,0,0,1,0-17.34c1.41-12,4.54-13,5.86-21.67,2.69-17.63-8.69-24.52-7-47.68A67.89,67.89,0,0,1,143.88,19"/><path class="cls-1" d="M162.65,114.36a74.23,74.23,0,0,1,0-17.34c1.41-12,4.54-13,5.86-21.67,2.7-17.63-8.69-24.52-7-47.68A67.89,67.89,0,0,1,162.65,19"/><path class="cls-2" d="M164.21,109.4a.21.21,0,0,0-.35-.17,17.94,17.94,0,0,1-11.57,4,17.63,17.63,0,0,1-9.42-3,.21.21,0,0,0-.33.18v11.51a17.7,17.7,0,0,0,9.75,3.25,18,18,0,0,0,11.92-4.33Z"/><path class="cls-4" d="M175,224.09c-.56-.35-6.44-4.11-6.7-10.72S173.36,200,180.32,200c5.76-.06,12.05,4.49,12.06,10.73,0,6.39-6.57,12-12.06,10.72-3.71-.87-7.34-5-6.71-9.38.45-3.11,3-6.61,6.71-6.71,3.08-.08,6.65,2.25,6.7,5.37a5.8,5.8,0,0,1-2.68,5.36c-2.68,1.34-6.7-1.34-5.36-4"/><path class="cls-4" d="M136.12,224.09c.57-.35,6.45-4.11,6.71-10.72S137.72,200,130.76,200c-5.76-.06-12,4.49-12.07,10.73,0,6.39,6.57,12,12.07,10.72,3.71-.87,7.34-5,6.7-9.38-.45-3.11-3.05-6.61-6.7-6.71-3.08-.08-6.66,2.25-6.7,5.37a5.8,5.8,0,0,0,2.68,5.36c2.68,1.34,6.7-1.34,5.36-4"/></g></svg>