<svg xmlns="http://www.w3.org/2000/svg" viewBox="0 0 300 300"><defs><style>.cls-1{fill:#26358b;}.cls-2{fill:#e20613;}.cls-3,.cls-4,.cls-6{fill:none;}.cls-3,.cls-4,.cls-5,.cls-6,.cls-7{stroke:#1d1d1b;stroke-miterlimit:10;}.cls-3,.cls-5{stroke-width:4px;}.cls-4{stroke-width:3px;}.cls-5{fill:#7c7c7f;}.cls-6,.cls-7{stroke-width:2px;}.cls-7{fill:#e9eaf6;}.cls-8{fill:#303031;}.cls-9{font-size:17px;fill:#fff;font-family:OpenSans-Extrabold, Open Sans;font-weight:700;}</style></defs><title>moon_landing</title><g id="Layer_6" data-name="Layer 6"><path class="cls-1" d="M130.63,41.14A50.39,50.39,0,0,1,154,34.53a32.3,32.3,0,0,1,6.1.33h0L158,12.76h0a32,32,0,0,0-8.25-.67,50.34,50.34,0,0,0-23.35,6.61"/><path class="cls-2" d="M214.44,19.09c-16.56,7.54-28.83,7.49-37.2,5.87-7.35-1.42-10.82-4.06-18.87-4.61l.62,7.73c7.6.67,11.15,3.72,18.25,5.09,8.37,1.62,20.64,1.66,37.2-5.87"/><path class="cls-2" d="M214.44,34c-16.56,7.54-28.83,7.49-37.2,5.88s-14-5-24.23-4.85a50.39,50.39,0,0,0-23.36,6.61v8.21A50.39,50.39,0,0,1,153,43.25c10.28-.2,15.82,3.22,24.23,4.85s20.64,1.66,37.2-5.88"/><path class="cls-2" d="M215.42,49.56c-16.56,7.54-28.83,7.49-37.2,5.87s-13.95-5-24.23-4.84a50.27,50.27,0,0,0-23.36,6.61v8.21A50.27,50.27,0,0,1,154,58.8c10.28-.21,15.82,3.22,24.23,4.84s20.64,1.67,37.2-5.87"/><path class="cls-3" d="M126.44,19.44a50.34,50.34,0,0,1,23.35-6.61c10.29-.2,15.82,3.22,24.24,4.85s20.64,1.66,37.19-5.87a1.22,1.22,0,0,1,1.74,1l4.68,51a1.23,1.23,0,0,1-.7,1.23C200,73,187.45,73,179,71.31s-13.95-5-24.24-4.85c-10,.2-14.41,1.82-19.71,4.76"/><path class="cls-4" d="M154.5,281.5a132.8,132.8,0,0,1-13.63,2.35,7.73,7.73,0,0,0-5.68,3.64A4.74,4.74,0,0,1,132,289.7c-6.08,1.22-7.71-1.44-14.81-1.57-2.88-.06-5.13,4.22-6.54,4.18-2.1-.06-3.57-.15-7.43-.37-2.44-.15-10.28-.72-15.67-4.42-.92-.63-1.2-2-2.64-3-2.62-1.89-4.38-.82-6.86-2.47-1.6-1.06-.9-2.49-3.64-5.95-2.45-3.08-2.38-4.29-3.77-6.29-2.07-3-2-3.29-2.4-5.4-.73-3.47.59-8.37-3.53-12"/><path class="cls-4" d="M95.5,101.5a99.44,99.44,0,0,1,16.25-8c16.74-6,31.34-4.65,41.4-3.68,13.17,1.27,29.33,5.78,39,11.89,4.55,2.64,4.28,3.64,7.76,4.3,2.12.41,2.4.29,5.45,2.3,2,1.34,3.23,1.25,6.37,3.63,3.51,2.68,4.92,1.94,6,3.53,1.7,2.44.67,4.22,2.61,6.8,1.07,1.42,2.35,1.76,3.1,2.58,4.6,5,4.54,13.14,4.73,15.58.3,3.85.42,5.32.52,7.42.07,1.41-4.16,3.74-4.05,6.62.28,7.1,3,8.67,1.87,14.78,1.35,7.44,10.52,8.23,11.23,14.41.85,7.43-2.5,8.73-2.76,16.57-.34,10.15,5.19,11,5.52,20.24.5,14.15-12.06,25.15-13.8,26.68-5.29,4.62-5.69,2.51-15.64,9.2-5.17,3.47-7.12,4.88-9.62,7.17"/><path class="cls-4" d="M57.5,197.5c-3.17-15.83-5.6-23.7-1.87-44.22.61-3.38,2.1-9,2.87-11.78"/><path class="cls-4" d="M64.68,252.39c-4.74-4.14-7.55-12.41-8.18-20.89"/><path class="cls-5" d="M130.64,105.47,119.08,19.85a1.91,1.91,0,0,1,1.34-2.09l3.87-1.18a1.92,1.92,0,0,1,2.45,1.58l11.6,85.9"/><path class="cls-6" d="M112.59,115.73a56.58,56.58,0,0,0,8.84-6.07c2.85-2.39,3.36-3.32,5.24-3.86,3.53-1,7.63.52,10.22,2.48,2.35,1.78,2.47,3.16,5,4.42a11.25,11.25,0,0,0,5.52,1.1"/><path class="cls-6" d="M149.84,107.79c-3,2.81-7.78-5.72-9.43-4.27-2.56,2.24-3.76-.83-5.76.35-.93.55-1.51.73-1.76,2.29"/><path class="cls-4" d="M59.84,150.75a19.12,19.12,0,0,0,.17-4.33c-.44-5.9-3.36-7-3.82-12.14,0-.46,3.15-2.46,3.87-8.16.29-2.27-.91-7.43-.74-8.67A10.93,10.93,0,0,1,59.4,111c1.09-3.19,3.55-4.8,6.86-7A24.11,24.11,0,0,1,77,99.87c3.32-.55,3.83-.89,7.65,1.27,1.12.64,2.75-.56,5.33-.59a19.63,19.63,0,0,1,2.91.15c2,.29,2.21.71,4.35,1.24a16.11,16.11,0,0,0,6.71.39,13,13,0,0,0,1.51-.38"/><path class="cls-6" d="M60.45,195.15a10.81,10.81,0,0,1-1.7,2c-2.61,2.38-4.33,1.67-6.64,3.72A8.74,8.74,0,0,1,50.45,206c-.8,1.1-3.44,2.86-3.88,3.46A6.61,6.61,0,0,0,44,212.25c-.83,1.85-.42,3.55.13,5.85a14.47,14.47,0,0,0,2.94,6.23c1.22,1.6,1.31,2,3.86,2.58.75.19,1,1.37,2.07,2.45a10.93,10.93,0,0,0,1.33,1.12,20.64,20.64,0,0,0,2.4,1.25,9.41,9.41,0,0,1,3.08,2.58,9.09,9.09,0,0,1,.5.78"/><path class="cls-6" d="M132.89,63.74c5.31-2.94,11.8-5.37,21.77-5.57,10.28-.2,18.43,4.76,25.82,5.87,5.76.87,20.62.39,37.17-7.14"/><path class="cls-6" d="M130.63,57.72A50.39,50.39,0,0,1,154,51.11c10.28-.2,15.82,3.22,24.23,4.85s20.64,1.66,37.2-5.87"/><path class="cls-6" d="M130.63,49.51A50.51,50.51,0,0,1,154,42.9c10.28-.2,15.82,3.22,24.23,4.85s20.64,1.67,37.2-5.87"/><path class="cls-6" d="M130.63,41.88A50.39,50.39,0,0,1,154,35.27c10.28-.2,15.82,3.22,24.23,4.85s20.64,1.66,37.2-5.88"/><line class="cls-6" x1="160.09" y1="35.6" x2="158.04" y2="13.49"/><path class="cls-6" d="M159,28.08c6.3,1,11,3.18,17.3,4.4,8.36,1.62,20.64,1.67,37.19-5.87"/><path class="cls-6" d="M159,20.76c6.3.95,11,3.18,17.3,4.4,8.36,1.62,20.64,1.67,37.19-5.87"/><path class="cls-4" d="M147.42,278.74A17.63,17.63,0,0,1,151.2,280c4.93,2.28,4.94,5.13,9.22,7.18.38.18,3.12-1.92,8.25-.71,2.05.48,6.1,3.17,7.22,3.42a10,10,0,0,0,5.53,2c3.11.08,5.28-1.51,8.2-3.66a22.18,22.18,0,0,0,7.06-7.88c1.54-2.68,2-3,1.36-7-.19-1.17,1.37-2.18,2.22-4.39a15.94,15.94,0,0,0,.8-2.55c.4-1.82.11-2.13.33-4.15a14.57,14.57,0,0,1,1.83-5.89,11.23,11.23,0,0,1,.8-1.17"/><path class="cls-6" d="M190.23,194.43c3,4,3,6.44,2.45,7.87-1.18,3.2-5.58,3.18-7.37,6.88-1.17,2.41-.6,5.09,0,6.88"/><path class="cls-6" d="M184.63,197.44c1.77.42,2.67.44,3.27,2.08.93,2.53-.78,5,2.57,4.9"/><path class="cls-6" d="M151.13,271.42a16.11,16.11,0,0,1,7.53-2.74c3.12-.25,4.88.65,8.22,0a14.86,14.86,0,0,0,5.13-2.05"/><path class="cls-6" d="M112.18,176.86c-1.82-2.48-3.25-3-4.22-2.93s-1.65.64-3.4.93a9.43,9.43,0,0,1-3.17,0"/><path class="cls-7" d="M87.86,190.62a6.47,6.47,0,0,0,1.65-3.52c.14-1.32.78-1.72,1.17-3.19.25-.94-.35-2.1,0-2.55"/><path class="cls-6" d="M177.31,110.59c3.38-.12,7.94.24,10,3.2,1.39,2,.68,3.86,1.6,6.78.75,2.39,2.65,5.67,8,8.78"/><path class="cls-8" d="M205.55,117.09c.8-.6,6.6,4.67,7.56,5.7,4.62,4.93,5.8,8.11,6.29,10.22.13.56.71,3.05.09,3.32s-1.66-1.48-4.49-5.17c-3.63-4.7-4.84-5.79-6.42-8.88C207.92,121,205,117.51,205.55,117.09Z"/><path class="cls-6" d="M226.91,132.33a16.89,16.89,0,0,0-2.19-4.77c-2-2.94-3.16-2.53-4.89-5-2.21-3.2-.85-4.64-3-7-1.69-1.84-2.69-1.13-5.64-3.41s-4.84-4.07-5.8-3.85c-1.42.32-.85,4.71.15,8.8.57,2.31,1.37,3.08,6,9.69,4.12,5.94,4.25,6.44,5.75,7.85,3,2.86,8.08,6.07,9.86,4.68C228.58,138.16,227.45,134.22,226.91,132.33Z"/><path class="cls-7" d="M113.27,145.56c3.06.31,4.28-2.35,5.22-2.13s.92,1.39,2,2,1.8,0,4-.48a21.07,21.07,0,0,1,5.51-.63c2.79.14,2.75,1.05,4.77.92,2.59-.15,3.17-1.69,5.82-2.21,1.24-.25,2.64-.45,2.64-.45"/><path class="cls-7" d="M97.32,225a5,5,0,0,1,1.18,3.54c-.16,1.32-1,1.87-1.18,3.39a5.58,5.58,0,0,0,.44,2.94"/><path class="cls-7" d="M124.46,238.45c-1.15,2-2.25,2.6-3.11,2.71-1.31.16-1.42-.12-2.54.24s-1.58,1.92-2.6,1.92"/><path class="cls-8" d="M61.23,115.88a9.45,9.45,0,0,1,4.43-4.25c2.08-1,2.62-2.13,4.51-3.35A62.66,62.66,0,0,1,78,104.34c1.54-.65,2.84-1.13,3.56-1.38a3.43,3.43,0,0,1,1.14-.21,7.31,7.31,0,0,1,2.19,0c.4.24,0,2.09-1,3.51-.37.56-1.19,1.61-3.72,2.86-3.14,1.57-4,1-7,2.5a34.42,34.42,0,0,0-3.72,2.31,47.34,47.34,0,0,1-4.72,3c-1.66.87-3.39,1.41-4,.87S60.86,116.59,61.23,115.88Z"/><path class="cls-6" d="M74.58,145.31c1,3.53.41,5.68-.31,7-1.18,2.19-3.1,2.72-4,5.18a7.59,7.59,0,0,0,0,4.57"/><path class="cls-8" d="M143,147.58c-.09-1.24,2.76-.33,7.82.17,1.48.15,3.61,2.77,5,3,2.72.38,4.58-.39,7.45.27a88,88,0,0,1,12.85,5.64c.95.59,3.58,1.76,3.4,2.79s-4.8,0-9.89-.9c-10.52-1.89-13.75-1.75-19.86-4C146.46,153.23,143,148.75,143,147.58Z"/><path class="cls-6" d="M69.4,227.68A22.73,22.73,0,0,1,72,230.47c1.56,1.91,1.87,2.89,3.06,3.61a5.83,5.83,0,0,0,4.18.56"/><path class="cls-6" d="M69.4,235.4a2.85,2.85,0,0,0,2.92-.42,3,3,0,0,0,1-2.5"/><path class="cls-6" d="M220,203.5c0,1.07,1.29,1.59,2.32,3.14.57.87.12,2.51.76,3a10.42,10.42,0,0,1,2,1.9,9.78,9.78,0,0,1,1.81,4.5"/><path class="cls-6" d="M197.61,233.07a5.81,5.81,0,0,0,4.4.49c1.38-.48,2.17-1.57,3.54-1.34.5.08.46.23,1.47.73a8.07,8.07,0,0,0,4.28,1.1,5.61,5.61,0,0,0,2.08-.61"/><path class="cls-6" d="M156.12,142.53c-.7-.26-.7-.34-1.47-.66-3.49-1.45-6.66.19-11.38.68-2.12.22-.94,4,0,6,2.75,5.85,11.68,7.31,29.42,10,7.62,1.15,11,1.26,10.72,0-.57-2.65-4.52-6.48-8.36-9.63-5.11-4.18-7.66-6.27-10.53-6.17C162.31,142.78,159.68,143.81,156.12,142.53Z"/><path class="cls-7" d="M189,175.31c-.14-3.3-1.22-4.94-2.16-5.82-1.45-1.36-2.88-1.23-3.38-2.61-.44-1.19.53-1.58.58-4.53a7,7,0,0,0-.56-3.16,6.3,6.3,0,0,0-.67-1.12"/><text class="cls-9" transform="translate(140.26 32.62) rotate(-6.59)">?</text><path class="cls-6" d="M59.32,117.45c1.4,1.49,7.17-1.24,10.92-4,4.11-3,6.53-1.88,11.7-5.68,3.41-2.52,3.23-5.11,3.06-5.71"/><path class="cls-8" d="M212.71,231.51h2.45c1.1-1.36,2.38-1.58,3.13-2.19,1.1-.89,1.72-3.2,3.57-4.59,1.29-1,.73-1.57,1.54-1.94,1.74-.79,3-4.9,2.66-5.22-.18-.17.93-.94-1.13,1.35-1.64,1.82-2.7.59-3.58,1.15-1.94,1.25-3.15,3.67-5.64,6.7-.73.88-1.54,2.87-2,3.28"/><path class="cls-6" d="M217.2,224.84c-2.44,2.19-5.4,6.22-4.28,8.07.87,1.42,3.92,1.15,5.55.75,5.44-1.34,7.71-7.37,8.06-8.32,1.56-4.12,1.3-8.79.25-9.07-.56-.16-1,1.06-2.47,2.85-.48.59-2.88-.31-3.62.38C218.34,221.68,219.35,222.91,217.2,224.84Z"/><path class="cls-8" d="M47.9,212c-.42.13-1.35,2.65-1,4a17.37,17.37,0,0,0,2.3,4.93c.76,1.17,2.39,2.08,2.69,1.91s-.28-1.69-.87-2.85c-.91-1.77-1.37-1.53-1.8-2.74-.56-1.58.06-2.52-.85-3.92C48.2,213.16,48.18,211.94,47.9,212Z"/><path class="cls-6" d="M46.57,209.43c1.22-.07,2.61,3.49,3.12,6.22.56,3,2.07,3.5,2.76,7.27a4.73,4.73,0,0,1-1.06,4.31"/><path class="cls-8" d="M100.19,235.36a32.21,32.21,0,0,0,3.06,2.68,20.59,20.59,0,0,0,4.11,1.85,29.59,29.59,0,0,0,4.54,1c1,.19,2.63,1.14,2.8.65s-2.47-3-4.51-3.6c-1.6-.5-3.1-2.18-5.49-2.48C101.24,235,100,235.18,100.19,235.36Z"/><path class="cls-6" d="M104.5,236c-1.4.16-6.5-2.23-6.72-1.93-.75,1,1.63,4.42,4.31,6.58,5,4,12.51,5,13.57,3.09.77-1.41-1.94-4.2-2.26-4.53C112.32,238.09,106,235.81,104.5,236Z"/><path class="cls-8" d="M76.12,268.52c-.2.33.37,1.86,2.34,3.5,2.4,2,4.32,3.31,5.14,3.88,6.87,4.76,6.09,4.83,8.6,6.19,4.22,2.28,8.93,3.46,9.23,2.83.15-.3.6-2.42-4.77-6.17-8.41-5.89-10.19-6.9-11.27-7.51C81.43,269,76.44,268,76.12,268.52Z"/><path class="cls-6" d="M96.07,289.76a16.65,16.65,0,0,1-4.82-2.1c-3-1.93-2.59-3.1-5.13-4.78-3.25-2.15-4.66-.76-7-2.85-1.87-1.65-1.17-2.67-3.52-5.57s-4.26-3.35-4.06-4.32c.3-1.42,4.79-2.34,8.9-1.43,2.32.52,3.1,1.31,9.81,5.76,6,4,6.52,4.13,8,5.6,2.92,3,6.23,8,4.88,9.76C101.93,291.31,98,290.27,96.07,289.76Z"/><path class="cls-8" d="M178.12,286.87c.18.31,3.26-.27,4.84-1.13,2-1.07,1.92-1.68,4.31-3.51,2.63-2,3.78-2.11,4.53-3.58a7.32,7.32,0,0,1,1-2.63c1.8-2.5,1.38-3.57.29-2.5a46.87,46.87,0,0,0-4.29,3c-3.11,3.06-2.51,3.15-4.09,4.38s-2.47,2.06-4.8,4C178.36,286.17,178.08,286.8,178.12,286.87Z"/><path class="cls-6" d="M175.89,289.87c-.83-1.68,3.37-5.77,6.94-8.11,3.9-2.57,3.71-5,8.64-8.23,3.26-2.14,5.43-1.15,5.88-.81"/><path class="cls-8" d="M92.42,180.72a4,4,0,0,1,1.9-2.83c1.11-.69,1.71-.93,2.44-1.35a4.35,4.35,0,0,1,4,.15c.14.25-1.6,1.33-2.82,2.29a6.81,6.81,0,0,1-3.44,1.74C94,180.74,92.25,181.36,92.42,180.72Z"/><path class="cls-6" d="M97.55,173.45a8.71,8.71,0,0,0-5.46,3.64c-.6.87-1.8,3-1.29,3.82,1.11,1.85,9.88-2.7,10.55-5.32C101.72,174.14,99.64,173.13,97.55,173.45Z"/></g></svg>