<svg xmlns="http://www.w3.org/2000/svg" viewBox="0 0 300 300"><defs><style>.cls-1{fill:#fff;}.cls-1,.cls-2{stroke:#303031;stroke-miterlimit:10;stroke-width:4px;}.cls-2{fill:none;}</style></defs><title>pyramids</title><g id="Layer_3" data-name="Layer 3"><path class="cls-1" d="M114.93,38.33,12,221.44a.15.15,0,0,0,.13.23H214.94a.15.15,0,0,0,.13-.22L115.19,38.33A.15.15,0,0,0,114.93,38.33Z"/><path class="cls-2" d="M115.06,38.09l113.74,138a.17.17,0,0,1,0,.14l-13.64,45.44"/><path class="cls-1" d="M211.69,122.47,136.42,256.4a.11.11,0,0,0,.1.16H284.84a.11.11,0,0,0,.1-.16L211.88,122.47A.11.11,0,0,0,211.69,122.47Z"/><path class="cls-2" d="M211.79,122.29,295,223.23a.1.1,0,0,1,0,.1l-10,33.23"/></g><g id="Layer_5" data-name="Layer 5"><line class="cls-2" x1="22" y1="201" x2="48" y2="201"/><line class="cls-2" x1="30" y1="188" x2="56" y2="188"/><line class="cls-2" x1="181" y1="178" x2="207" y2="178"/><line class="cls-2" x1="174" y1="190" x2="200" y2="190"/><line class="cls-2" x1="238" y1="240" x2="275" y2="240"/><line class="cls-2" x1="120" y1="124" x2="161" y2="124"/><line class="cls-2" x1="135" y1="134" x2="166" y2="134"/><line class="cls-2" x1="39" y1="190" x2="39" y2="201"/><line class="cls-2" x1="250.99" y1="240" x2="251" y2="230"/><line class="cls-2" x1="126" y1="114" x2="157" y2="114"/><line class="cls-2" x1="192" y1="178" x2="192.01" y2="168"/><line class="cls-2" x1="146" y1="135" x2="146.01" y2="125"/></g></svg>