<svg xmlns="http://www.w3.org/2000/svg" viewBox="0 0 300 300"><defs><style>.cls-1,.cls-2{fill:none;stroke:#303031;stroke-miterlimit:10;}.cls-1{stroke-width:4px;}.cls-2{stroke-width:2px;}</style></defs><title>trump</title><g id="trump"><path class="cls-1" d="M186,65c1.07,3.47,1.75,5.71,4,12,5.12,14.31,8.49,20.83,12,30a193.23,193.23,0,0,1,9,32c5.38,26.14,8.08,39.21,3,53-6.66,18.11-21.88,28.25-32,35-8.8,5.87-14.32,7.37-18,8-11.63,2-21.12-1.92-26-4-8.22-3.51-13.82-8.68-25-19-8.56-7.9-11.19-11.78-12-13a54.56,54.56,0,0,1-8-20"/><path class="cls-1" d="M97,167c.43.64,4.18,6.42,2,10-2.33,3.83-10.16,3-15,1-9.21-3.77-13.35-14-17-23a79.23,79.23,0,0,1-4-13"/><path class="cls-1" d="M81,104a56,56,0,0,1-4,17,59.9,59.9,0,0,1-10,16,61.94,61.94,0,0,1-11,10"/><path class="cls-1" d="M175,58a31.69,31.69,0,0,0,6,4c4.13,2.12,10.93,5.6,18,3,5.12-1.89,10.49-7,11-14,.67-9.13-7.44-14.64-8-15-4.4-2.88-7.95-2.11-16-3-8.36-.93-10.06-2.37-21-5-18.1-4.35-27.15-6.53-38-5-7.14,1-14.76,4.67-30,12C82.76,41.85,78.68,45.44,77,47c-5.67,5.27-8.44,10.18-14,20-5.76,10.18-8.64,15.42-9,23-.06,1.27,0,.69,1,13,.78,10,1.17,15.06,1,17-.62,7.24-2.41,7.62-4,18-1.12,7.3-1.64,11,0,14,3,5.5,8.53,3.58,12,9,3.3,5.15-.13,9.32,2,17,1.66,6,5.62,10.21,9,13"/><path class="cls-1" d="M72,178a18.92,18.92,0,0,0,3,13c4.86,7.12,12.91,7.91,14,8"/><path class="cls-1" d="M84,192a17.35,17.35,0,0,0,5,7c4,3.37,13.41,3.89,15,4"/><path class="cls-1" d="M107,206c-10.73,8.83-21.7,18.55-27,24-16.85,17.3-14,14-22,23-1.21,1.36-8.07,5.68-8,8,.09,3.12,6.51,5.48,12,7"/><path class="cls-1" d="M46,277a155.76,155.76,0,0,0,22-14,155.8,155.8,0,0,0,16-14"/><path class="cls-1" d="M107,206a155.69,155.69,0,0,0-3,16c-.61,5.54-.15,8.76,0,13,.3,8.43-1,8.69-2,23-.77,11.4-1.12,17.11,1,18,1.21.51,2.87-.46,13-11,6.81-7.09,12.59-13.45,14-15,3-3.34,9.48-10.17,15-16"/><path class="cls-1" d="M51,233q9-2.44,18-5c4.7-1.33,14.36-3.66,19-5"/><path class="cls-1" d="M94,277c-.23-4.16-.61-11.14-1-20,0,0-.36-8.09,2-24,.22-1.5.7-4.41,3-6a7.22,7.22,0,0,1,5-1"/><path class="cls-1" d="M209,203c.49,1.23,3.17,3.38,3,6-.32,4.79-3.6,10-4,11-4,10-10.21,17.43-27,58"/><path class="cls-1" d="M164,235c2,1.84,5,5.84,7,8a133.51,133.51,0,0,1,16,21"/><path class="cls-1" d="M136,276a28.81,28.81,0,0,1,5-17c1.68-2.34,4.5-6.27,8-6,3,.23,5.15,3.35,7,6a23.24,23.24,0,0,1,3,6,26.17,26.17,0,0,1,1,12"/><path class="cls-1" d="M132,248c.71.91,2.68,4,4,5a17.28,17.28,0,0,0,6,3"/><path class="cls-1" d="M157,258c1.59-.56,3.26-1.22,5-2,6-2.71,7.65-3.51,9-5,1-1.14,3.65-3.27,4-4"/><path class="cls-2" d="M146,244a11.25,11.25,0,0,1,1,3,25.4,25.4,0,0,1,0,6"/><path class="cls-2" d="M153,253a13.6,13.6,0,0,0,5-7"/><path class="cls-1" d="M212,208c2.9,1.65,8.3,4,10,5,9.74,5.59,11.45,6.66,13,9,2,3,.64,3.53,3,9,1.22,2.83,2.36,4.5,7,11,7.5,10.5,8.4,11.55,8,13-.46,1.65-.84,6.61-15,7"/><path class="cls-1" d="M216,232a152.65,152.65,0,0,0,8,15c4.41,7.26,6.68,10.94,10,13,3.6,2.23,8.26,3.47,14,5,5.32,1.41,7.42,1.51,8,3s-.06,4.26-9,11"/><path class="cls-1" d="M261,230l-12-4c-4-1.33-10-2.67-14-4"/><path class="cls-1" d="M79,58a8.31,8.31,0,0,0-6,4c-1.15,2.14-1.5,5.4,0,7,2.53,2.71,9.56-.11,19-4,11.59-4.77,12.81-6.89,22-10,6.84-2.31,6.11-1.12,15-4,12.53-4,12.39-5.9,18-6,3.37-.06,7.29.55,11-2a11.87,11.87,0,0,0,3-3"/><path class="cls-1" d="M177,44a23.22,23.22,0,0,1-7,5c-5.88,2.7-11.75,2.3-16,2-3.7-.26-4.88-.78-10-1-2.94-.12-5.37-2.07-7-2"/><path class="cls-1" d="M63,79a8.91,8.91,0,0,0,4,3c3.23,1.12,6.22-.33,15-5,11.11-5.9,9.22-5.11,13-7,5.64-2.82,7.75-3.54,11-6s6.61-7.17,8-9"/><path class="cls-1" d="M66,90c6,1,9.77-1.69,13-4,4-2.82,6.49-9.57,7-11"/><path class="cls-1" d="M148,201c3.64,3,13.44,10.17,27,10,3.12,0,18.2-.23,23-9,2.18-4,.59-6.74,3-16a63.21,63.21,0,0,1,4-11"/><path class="cls-1" d="M80,150c0-.36,0-2.52,1-3s3.23,1.11,4,3c1,2.39-.69,3.9,0,6,.44,1.35,1.85,2.93,6,4"/><path class="cls-1" d="M83,166a6.63,6.63,0,0,1,3-2,7.25,7.25,0,0,1,6,1"/><path class="cls-1" d="M187,84a15.53,15.53,0,0,0-10-1c-3.49.87-7.58,2.58-10,5a42.37,42.37,0,0,0-5,6c-1.22,1.81-1.49,4.48-1.89,7.59-.77,6,2.13,10.83,4.33,14.36,6.6,10.62,14.06,11.49,14,17.32a10.23,10.23,0,0,1-6.19,8.72c-4.89,1.85-9.44-2.66-12.75-.08-1.79,1.39-1.09,3.21-3.4,4.94-2,1.46-5,2.11-6.56,1-2.13-1.56-1.75-7,1.87-13.29"/><path class="cls-2" d="M151.11,175.77c.9-2.82,1.69-4.49,2.51-4.67,1.26-.27,2.33,1.72,4.41,1.61a6.23,6.23,0,0,0,2.69-.81c2.14-1.26,1.35-2.84,3.41-4.94,1.85-1.9,4.38-2.54,4.57-4.32a1.88,1.88,0,0,0,0-.19,4.11,4.11,0,0,0-2-3.13c-.05.06,2.47,3.7,4.95,3.41a2.91,2.91,0,0,0,1.05-.36,5.42,5.42,0,0,0,2.62-3.68c-.17-.09-3.21,4.46-2.24,5.56.51.58,2,0,2.07.36.18.52-3.14,1.63-3,2.88.08,1.09,2.72,1.64,2.6,2.15s-1.65-.1-2.69.81c-.85.75-.41,1.61-1.25,2.34-1,.86-2.17.15-2.7.81-.89,1.11,1.4,4.46,1.35,4.49a8.3,8.3,0,0,0-3.14-4,7.25,7.25,0,0,0-4.13-.72c-1.65.13-3.44-1.09-4.13-.71"/><path class="cls-1" d="M154.79,171.73c4-4.58,7.14-10.12,7.8-13.12.52-2.33.74-5.13,2.24-5.57s2.93,2.43,5.57,2.24c2.06-.15,2.24-2,4.22-2.25,2.92-.41,5.65,3.11,7.55,5.56,1.48,1.91,4.1,5.3,3.06,6.91-1.19,1.83-6.4.29-6.56,1-.11.54,3,.95,4.94,3.41a8.94,8.94,0,0,1,1.63,5.39c0,.77.2,6.76-3.86,10-5.56,4.41-14.33-.2-16-1.06a22.27,22.27,0,0,1-8.09-7.36"/><path class="cls-2" d="M134.7,98.47a14.77,14.77,0,0,1,3.23,1c3.35,1.46,4.5,3.5,5.84,3.13.66-.17,1.42-.93,1.88-3.5"/><path class="cls-2" d="M114.59,106.48a50.13,50.13,0,0,1,5.12-2.52c3.6-1.52,5.4-2.28,7.18-2.16,2.89.2,5.2,2,8.17,4.39,1.7,1.35,3.47,3.06,5.84,3.14.48,0,1.48,0,1.8-.54a1.74,1.74,0,0,0-.54-1.8"/><path class="cls-2" d="M95.2,110.36c.81.47,2,1.14,3.5,1.88,3.45,1.72,8.47,3.83,8.81,3.23.19-.35-1.45-1.19-2.88-3a13.11,13.11,0,0,1-2.43-8.08"/><path class="cls-2" d="M96.82,115.75a16,16,0,0,0,9.7,3"/><path class="cls-2" d="M108.22,111.34c.42.49.9,1,1.44,1.52a21.79,21.79,0,0,0,2.6,2.15"/><path class="cls-2" d="M130.23,119.4a9,9,0,0,0,5.11-2.52"/><path class="cls-2" d="M114.61,126.06a21.41,21.41,0,0,0,5.57,2.24c4.81,1.16,8.51.22,11.58-.55,2.85-.72,3.76-1.41,4.22-2.25.31-.57.17-.76,1-3.24.43-1.33.68-1.91,1.25-2.33a3,3,0,0,1,1.8-.54"/><path class="cls-2" d="M145.54,163.74a10.56,10.56,0,0,0-1,3.24,10.7,10.7,0,0,0,.45,4.75"/><path class="cls-2" d="M161.06,150.26a5.12,5.12,0,0,0-2.16,2.6,5.24,5.24,0,0,0,.19,3.87"/><path class="cls-2" d="M156.67,158.43a25.17,25.17,0,0,0-1.26,2.34,26.13,26.13,0,0,0-1.61,4.4"/><path class="cls-2" d="M179.74,150.51a17.58,17.58,0,0,1,6,7"/><path class="cls-2" d="M167.07,147.47a6.14,6.14,0,0,0,4.05,3.68"/><path class="cls-2" d="M165.5,100c0,2.16.53,2.58.81,2.69,1.05.42,2.89-1.84,3.95-3.15,1.88-2.31,1.58-2.87,3.41-4.94a11.82,11.82,0,0,1,3.94-3.14,9.91,9.91,0,0,1,2.7-.81"/><path class="cls-2" d="M169.64,110.47a7.37,7.37,0,0,0,3.77,2.78"/><path class="cls-2" d="M170.62,107.24a13.9,13.9,0,0,0,2.07.35,13.62,13.62,0,0,0,3.86-.18"/><path class="cls-2" d="M192.53,98.69a10.68,10.68,0,0,0,1-3.24,10.54,10.54,0,0,0-.18-3.86"/><path class="cls-2" d="M177,112.17a14,14,0,0,0,4.14.71c1.91,0,5.15.11,7.18-2.16a6.78,6.78,0,0,0,1.61-4.4"/><path class="cls-2" d="M191.81,102.82a3.5,3.5,0,0,0,2.07.35,4,4,0,0,0,3.05-2.87"/><path class="cls-2" d="M192.56,137.84a11.78,11.78,0,0,0,3.95-3.15,12.13,12.13,0,0,0,2.6-7.64"/><path class="cls-2" d="M100.43,134.24A15.93,15.93,0,0,0,99,142.5a13.37,13.37,0,0,0,1.62,5.39,13.21,13.21,0,0,0,4.32,4.58"/><path class="cls-2" d="M102.59,141.42a33,33,0,0,0,3.69,5.75,34,34,0,0,0,11.59,9.24"/><path class="cls-2" d="M99.32,101.29a12.57,12.57,0,0,1-.72-5.66,12.72,12.72,0,0,1,2.86-6.74"/><path class="cls-2" d="M94.65,98.78a16.48,16.48,0,0,1,8.24-18.15"/><path class="cls-2" d="M91.32,91A13.9,13.9,0,0,1,97,80.46"/><path class="cls-2" d="M107.38,79.28a25.58,25.58,0,0,1,7.27-5.12,27.51,27.51,0,0,1,18.14-1.55"/><path class="cls-2" d="M143.84,80.05a13,13,0,0,1,1.63,15.18"/><path class="cls-2" d="M158.3,82.55a11.86,11.86,0,0,0-.44,5c.43,3.27,2.08,4.41,2.43,8.08.08.9.34,3.68-.72,4.13-.83.36-2.33-.79-3.77-2.78"/><path class="cls-2" d="M164.67,77.7A41,41,0,0,1,181.9,66.64"/><path class="cls-2" d="M141.14,71.08c2.86.39,5.28.64,7.09.8,8.12.7,11.45.27,12.75.08,2.9-.44,4.52-.7,6.29-1.9,1.22-.81,1.73-1.55,4.57-4.31,1.27-1.24,2.34-2.23,3-2.88"/><path class="cls-2" d="M163,60a16.1,16.1,0,0,1-5,4c-6.22,3.15-12.59.89-18,0s-13.51-1-24,3"/><path class="cls-1" d="M142,94a51.39,51.39,0,0,0-12-3c-4.89-.61-10.12-1.26-16,1a25,25,0,0,0-8,5"/></g></svg>