<svg xmlns="http://www.w3.org/2000/svg" viewBox="0 0 300 300"><defs><style>.cls-1{fill:#fff;stroke:#303031;stroke-miterlimit:10;stroke-width:4px;}</style></defs><title>ufo</title><g id="Layer_5" data-name="Layer 5"><ellipse class="cls-1" cx="150.5" cy="104" rx="66.5" ry="54"/><ellipse class="cls-1" cx="150" cy="143" rx="130" ry="48"/><ellipse class="cls-1" cx="149" cy="149" rx="103" ry="32"/><path class="cls-1" d="M198,250c0-6,.8-9.69,1-13,.28-4.57-3.05-7.13-4-9-1.22-2.39,1.5-4.3.07-7-2.11-4-3.36-6.2-5.07-10-1.58-3.5.41-7.63-2-11-3.9-5.46.32-3.25-3-13-1.36-4-3.59-6.1-3.93-10-.33-3.73.58-3.15-.07-6h0a10.58,10.58,0,0,0,1-4c0-7.18-14.33-13-32-13s-32,5.82-32,13a5.55,5.55,0,0,0,.38,2,11.28,11.28,0,0,0,1.62,3h0c-.65,2.85.33,4.27,0,8-.34,3.9-1.64,5-3,9-3.32,9.75.9,13.54-3,19-2.41,3.37-4.42,2.5-6,6-1.71,3.8.11,6-2,10-1.43,2.7-2.78,2.61-4,5-1.64,3.21,2,12-1,21"/><path class="cls-1" d="M137,155c-.83.86-3.86,5.23-4,7s.81,2.8,1,5-.54,2.77-1,5c-1,4.92,1.63,5.64,1,11-.38,3.26-1.49,4.15-1,7,.35,2,1.05,2.38,1,4-.1,2.85-2.32,3.26-3,6-.85,3.38,2.14,4.36,2,9-.07,2.35-.91,4.37-2,7s-2.05,3.84-2,6,1,2.14,1,4c.07,3.68-3.49,5.08-3,8,.24,1.46,1.27,1.91,2,3,1.39,2.07,1.5,6.16-4,15"/><path class="cls-1" d="M163,155c.83.86,3.86,5.23,4,7s-.81,2.8-1,5,.54,2.77,1,5c1,4.92-1.63,5.64-1,11,.38,3.26,1.49,4.15,1,7-.35,2-1.05,2.38-1,4,.1,2.85,2.32,3.26,3,6,.85,3.38-2.14,4.36-2,9,.07,2.35.91,4.37,2,7s2.05,3.84,2,6-1,2.14-1,4c-.07,3.68,3.49,5.08,3,8-.24,1.46-1.27,1.91-2,3-1.39,2.07-1.5,6.16,4,15"/></g></svg>