<svg xmlns="http://www.w3.org/2000/svg" viewBox="0 0 300 300"><defs><style>.cls-1{fill:none;}.cls-1,.cls-2{stroke:#303031;stroke-miterlimit:10;stroke-width:4px;}.cls-2{fill:#fff;}</style></defs><title>william</title><g id="Layer_5" data-name="Layer 5"><path class="cls-1" d="M281.2,238.91c3,2.15,5.42,4,6.8,5.1l-1.7,35.7H16l6.72-40.31a1.59,1.59,0,0,1,.42-.85c1.49-1.61,7.52-8.09,9.86-9.84,13.6-10.2,20.4-11.9,25.5-13.6,23.09-7.7,115.52-15.53,175.1,1.7C259.69,224.36,275.63,235,281.2,238.91Z"/><path class="cls-2" d="M237,147.11c1.23,12.63,10.23,40.19-1.7,66.3-5.69,12.45-17.78,25.41-23.8,32.3A164.79,164.79,0,0,0,170.7,227a171.84,171.84,0,0,0-110.5,5.1h0c-5.1-17,1.51-30.93,8.5-47.6A135.64,135.64,0,0,1,84,157.31l1.7-1.7c1.48.41,3.86,1,6.8,1.7,33.72,7.66,46.4-.9,83.3,0,23.94.59,33.38,4.55,51-1.7,7.52-2.67,6.48-6,10.2-8.5"/><path class="cls-2" d="M114.6,45.11C107.9,52,72.1,99.51,67,121.61c-1.9,8.24-3.93,26.67,3.4,34,7.56,7.57,23.5,1.46,37.4-5.1"/><path class="cls-2" d="M153.7,31.51c11.9,0,23.07,7.15,30.6,13.6,11.9,10.2,21.39,21,35.7,49.3,18.28,36.17,17,42.5,17,51,0,14.11-12.82,18.34-15.3,18.7-9.52,1.38-19.12-2-23.8-3.4"/><path class="cls-2" d="M92.5,128.41c.33-34,.72-51.31,11.9-69.7C109,51.1,115,41.92,126.5,36.61c22.1-10.2,44.2-6.8,59.5,13.6,9.07,12.09,8.55,30.43,8.5,35.7-.1,9.93-.84,16.12-1.7,25.5-2.08,22.7,6,23.63,5.1,42.5-.9,19.48-15.83,33.2-20.4,37.4-5.77,5.3-21.36,19.63-42.5,17-20.38-2.54-31.91-19.1-34-22.1C92.24,173.63,92.21,158.38,92.5,128.41Z"/><path class="cls-1" d="M145.2,96.11a30.37,30.37,0,0,1,10.2-6.8c12.71-5.09,24.69.47,27.2,1.7"/><path class="cls-1" d="M94.2,89.31c10.2-3.4,26.35-3.76,32.3,3.4,2.91,3.5,3.21,7.6,3.4,10.2.83,11.22-6.1,24.18-6.8,25.5a12.43,12.43,0,0,0-1.7,6.8,10.25,10.25,0,0,0,1.7,5.1c2.68,3.63,10.54,4.16,18.7,0"/><path class="cls-1" d="M126.5,157.31a13.44,13.44,0,0,0-15.3,5.1"/><path class="cls-1" d="M135,157.31a20.1,20.1,0,0,1,10.39,0,17,17,0,0,1,8.31,5.1"/></g></svg>